<?xml version="1.0" encoding="utf-8"?>
<!-- Generator: Adobe Illustrator 23.0.3, SVG Export Plug-In . SVG Version: 6.00 Build 0)  -->
<svg version="1.1" xmlns="http://www.w3.org/2000/svg" xmlns:xlink="http://www.w3.org/1999/xlink" x="0px" y="0px"
	 viewBox="0 0 1600 1200" style="enable-background:new 0 0 1600 1200;" xml:space="preserve">
<style type="text/css">
	.st0{fill:#E8E8E8;}
	.st1{fill:#EC615B;}
	.st2{fill:#461EB8;}
	.st3{fill:#FFFFFF;}
	.st4{opacity:0.18;fill:#9B9797;}
	.st5{fill:#FFFFFF;stroke:#000000;stroke-width:2;stroke-miterlimit:10;}
	.st6{fill:#606060;}
	.st7{fill:#9B9797;}
	.st8{opacity:0.19;fill:#9B9797;}
	.st9{opacity:0.22;fill:#9B9797;}
	.st10{opacity:0.25;fill:#9B9797;}
	.st11{opacity:0.35;fill:#9B9797;}
</style>
<g id="background">
	<g>
		<g>
			<path class="st0" d="M229.1,624.6c1.4,4.8,6.7,5.4,10.9,4c4.5-1.5,8.4-6.5,13.5-3.9c2.7,1.4,4.4,4.4,7.4,5.3c6.3,2,9.1-4.8,14-7
				c6.9-3.1,13.5,5,20.6,3.8c2.8-0.4,4.5-2.2,6.5-4c4.3-3.9,7.3-2.3,11.3,0.9c3.6,2.9,7.5,6.7,12.5,5.8c7.7-1.5,9-11.7,18.3-9
				c5.9,1.7,11.3,6.6,17.8,5.5c3.4-0.6,5.8-2.8,8.2-5.1c4-3.8,7.5-5.8,13.2-4.3c6.8,1.7,13.2,6,20.3,2.8c1.7-0.8,0.2-3.4-1.5-2.6
				c-6.6,3.1-13.8-2.6-20.4-3.6c-5.8-0.9-9.6,1.8-13.7,5.6c-3.2,3-6.3,5.1-10.8,4c-3.6-0.9-6.8-3-10.2-4.4c-4.5-1.8-9-2.2-13.1,1
				c-2.5,1.9-4.2,5.2-7,6.6c-4,2.1-7.7-1.2-10.6-3.6c-3.1-2.5-6.8-5.9-11.2-4.9c-2.4,0.5-3.9,2.2-5.6,3.8c-4.2,3.8-7.9,2.6-12.7,0.6
				c-4.8-2-9.6-3.8-14.3-0.7c-3.2,2-5.6,6.5-9.7,6c-3.5-0.4-5.2-4.1-8.4-5.5c-2.8-1.2-5.5-0.8-8.2,0.4c-2.9,1.3-12.1,8.2-14,1.8
				C231.4,621.9,228.5,622.7,229.1,624.6L229.1,624.6z"/>
		</g>
	</g>
	<g>
		<g>
			<path class="st0" d="M319.3,604.2c3.6-5,12.1,4.4,17,3.8c6-0.7,6.8-8.4,13.8-6.5c4.6,1.2,8.6,4.7,13.6,4.4
				c5.8-0.3,9.4-7,15.4-5.5c4.1,1,7.7,4.8,12.1,4.3c2-0.2,2.9-1.3,4.3-2.5c1.8-1.6,0.7-4.5,5.7-2.8c1.6,0.6,2.9,2.5,4,3.7
				c2.8,3.2,5.8,5.7,10.2,4.1c3.6-1.3,6.3-3.3,10.3-3.4c4.5-0.1,8.6,1.3,12.1,4.1c1.5,1.2,3.6-0.9,2.1-2.1
				c-4.5-3.6-9.9-5.4-15.6-4.9c-2.8,0.3-5,1.3-7.5,2.2c-7.4,2.8-8-1.9-12.5-5.3c-4.3-3.2-7.1-2.2-10.4,1.3c-1.9,2.1-2.8,2.9-5.7,2
				c-1.6-0.5-3.1-1.5-4.5-2.2c-2-1-4.1-1.9-6.4-1.9c-6.5-0.1-9.9,7.1-16.8,5.5c-4.9-1.2-9.5-5.5-14.8-4.3c-2.4,0.5-3.9,2.1-5.5,3.8
				c-1.9,2.1-4.7,2.9-7.6,2.3c-1.8-0.4-3.5-2.3-5.2-3.1c-3.7-1.8-8-2.1-10.6,1.5C315.6,604.2,318.2,605.7,319.3,604.2L319.3,604.2z"
				/>
		</g>
	</g>
	<g>
		<g>
			<path class="st0" d="M1231,103.6c1.8-4.7,8.1,1.8,9.8,2.9c1.9,1.3,3.8,2.1,6.2,1.8c3.2-0.3,5.8-2.3,9-2.5c3.1-0.1,6.1,1,9,1.8
				c4.5,1.3,9.5,2.7,13.9,0.2c3.3-1.9,4.9-4.4,8.9-2.3c2.1,1.1,3.4,2.5,5.8,2.8c4.9,0.6,8.9-2.8,13.4-3.9c5.4-1.2,7.3,5,12.8,3.5
				c3.6-1,5.8-3.2,9.8-3.2c3.2,0,6.3,0.9,9.4,1.7c5.5,1.4,10.7,2.8,16.4,1.7c1.9-0.4,1.1-3.3-0.8-2.9c-7.5,1.4-14.5-2.3-21.9-3.2
				c-2.3-0.3-4.6-0.4-6.9,0.1c-3.4,0.7-6.5,4.1-10.2,2.2c-2.2-1.2-2.7-2.8-5.5-3.1c-1.9-0.2-3.9,0.3-5.7,0.9
				c-2.5,0.9-4.8,2.3-7.4,2.9c-4.6,1.1-6.3-2-10.2-3.3c-5.4-1.8-8.5,4.5-13.7,4.6c-6.4,0.1-12.1-4.1-18.6-3.4
				c-3.8,0.4-7.1,3.1-11.1,1.8c-2.5-0.9-4.2-3.8-6.7-4.9c-3.4-1.5-7.4-0.8-8.8,2.9C1227.4,104.7,1230.3,105.4,1231,103.6L1231,103.6
				z"/>
		</g>
	</g>
	<g>
		<g>
			<path class="st0" d="M1281,96.2c4.3-3.5,11.1,0.6,15.8,1.1c1.9,0.2,3.7,0.1,5.5-0.6c3.3-1.2,5.5-4.1,9.3-4.2
				c5.4-0.2,9.7,4.5,15.2,4.5c2.5,0,4.9-0.9,7.3-1.7c4.3-1.5,7.2-1.9,11.1,0.9c3.4,2.4,5.8,2.7,9.5,1c3.9-1.8,6.1-2.9,10.1-0.6
				c2.2,1.2,4,2.9,6.3,3.8c5.1,2.1,10.1,0.4,14.9-1.7c5.2-2.3,14.9-6.4,18.2,1.1c0.8,1.8,3.4,0.2,2.6-1.5
				c-5.3-12.1-20.2-1.7-28.1-0.1c-7.7,1.5-11.5-6.4-18.7-6.1c-2.4,0.1-4.2,1.3-6.2,2.3c-4.9,2.4-6.6-1.4-10.5-2.9
				c-5.8-2.2-10.8,2.7-16.5,2.5c-6.2-0.1-11.1-6.1-17.6-4.4c-2.7,0.7-4.5,2.8-7,3.9c-3.7,1.7-7.4,0.4-11.1-0.6
				c-4.4-1.1-8.5-1.9-12.2,1.2C1277.4,95.3,1279.5,97.4,1281,96.2L1281,96.2z"/>
		</g>
	</g>
	<g>
		<g>
			<path class="st0" d="M1265.6,1042.8c4.1-7.1,14.4,2.2,19.9,2.5c7.1,0.4,12.7-7.3,19.8-3.8c5.3,2.6,8.8,5.8,15.1,4.9
				c7.5-1.1,14-6.4,21.7-6.6c2.1,0,4.3,0.3,6.1,1.4c0.8,0.5,2.5,2.3,3.6,2.7c2,0.7,3.3,0.7,5.1-0.4c2.8-1.8,4.7-4.6,7.8-6.1
				c3.2-1.6,6.8-2.3,10.3-2.1c6.4,0.3,11.6,5.2,18.1,4.2c3.5-0.6,6.5-2.7,9.9-3.6c4.5-1.1,8.8,0.1,12.4,2.9c1.5,1.2,3-1.4,1.5-2.6
				c-5.3-4.1-11.5-4.6-17.6-2.2c-5.8,2.2-9.1,3.2-15.1,0.7c-2.6-1.1-5.1-2-7.9-2.3c-6.1-0.7-12.4,1.1-17.1,4.9c-1,0.8-2,2.4-3.1,2.9
				c-3.3,1.6-5.2-1.2-7.7-2.3c-2.5-1.2-5.3-1.3-8.1-1c-8.4,0.9-16.5,8.3-25.1,6.4c-6.7-1.4-10.1-7.5-17.5-5.4
				c-3.2,0.9-5.9,3.1-9.2,3.9c-5.1,1.3-8.8-2.1-13.3-3.7c-4.4-1.6-9.8-1.4-12.4,3C1262,1042.9,1264.6,1044.4,1265.6,1042.8
				L1265.6,1042.8z"/>
		</g>
	</g>
	<g>
		<g>
			<path class="st0" d="M1320.8,1028.4c2.2-7.5,13.2-0.7,17.7-0.4c4.6,0.3,8.3-2.1,12.1-4.4c2.8-1.7,5.5-3.2,8.9-2.5
				c3.2,0.6,5.7,2.8,8.5,4.2c3.6,1.8,7.3,2.3,11.1,1c4.2-1.4,7.6-4.3,11.6-6.3c6.8-3.4,11.7-0.3,18.6,0.3c4.1,0.4,7-1,10.2-3.6
				c6.1-5,12.9-7.1,20.3-3.5c1.7,0.8,3.3-1.7,1.5-2.6c-4.8-2.4-10.2-3-15.3-1.4c-6.9,2.2-10.2,9.3-18.2,7.8
				c-5.6-1.1-10.3-3-15.9-0.8c-5.1,2-9.3,6.3-14.7,7.6c-6.8,1.6-11.1-4.6-17.3-5.7c-5-0.9-9.1,2-13.2,4.4c-4,2.3-7.3,3.1-11.9,1.7
				c-2.8-0.9-5.4-2.1-8.4-2.1c-3.9,0-7.4,1.8-8.6,5.6C1317.4,1029.5,1320.3,1030.3,1320.8,1028.4L1320.8,1028.4z"/>
		</g>
	</g>
	<g>
		<g>
			<path class="st0" d="M317.4,312.8c5.8-6.6,14.9-9.7,23.5-7.4c7,1.9,12.4,6.8,20,5c6.9-1.7,11.9-7.3,18.6-9.5
				c7.5-2.5,14.8,1.3,21.7,3.8c5.8,2.1,11.7,3.5,17.6,1c4.6-1.9,7.9-4.7,13.2-3.7c3.5,0.7,6.8,2.4,10.2,3.6c8.7,3,16.4,0,25.1-1
				c9.9-1,19.7-0.1,29.3,2.3c1.9,0.5,2.7-2.4,0.8-2.9c-9.2-2.4-18.7-3.3-28.3-2.6c-4.6,0.4-9,1.3-13.4,2.1c-5.8,1-10.3,0.1-15.7-2
				c-7.5-2.9-12.4-3.6-19.7,0.1c-8.5,4.3-15.4,1.2-23.7-1.9c-6.3-2.4-12.7-3.8-19.2-1.3c-6.9,2.7-13,9.8-20.9,9.4
				c-4.8-0.3-9-3.4-13.4-4.9c-3.3-1.1-6.9-1.5-10.4-1.2c-6.8,0.6-12.9,3.9-17.4,8.9C314.1,312.1,316.2,314.2,317.4,312.8
				L317.4,312.8z"/>
		</g>
	</g>
	<g>
		<g>
			<path class="st0" d="M427.4,284.8c7.3-8.7,18.8,2.1,26.1,5c8.3,3.3,14.5-0.6,22.3-3c5.8-1.8,9.6,0.3,14.8,2.7c3,1.3,6,2,9.1,0.6
				c4.1-1.9,7-5.8,11.2-7.8c5.3-2.4,11-2.9,16.7-1.7c1.9,0.4,2.7-2.5,0.8-2.9c-8.5-1.8-17.4-0.1-24.3,5.2c-3.2,2.4-5.7,5.8-10.3,4.7
				c-2.4-0.6-4.6-2.3-6.9-3.3c-4-1.7-7.8-1.7-11.9-0.4c-4.9,1.5-9.6,4.5-14.9,4.4c-5.8-0.1-10.6-4.2-15.4-6.8
				c-6.1-3.2-14.5-4.9-19.5,1.1C424,284.2,426.2,286.3,427.4,284.8L427.4,284.8z"/>
		</g>
	</g>
	<circle class="st1" cx="478.5" cy="404.4" r="9.9"/>
	<circle class="st1" cx="1005.2" cy="75.1" r="9.5"/>
	<circle class="st1" cx="1493.3" cy="765.4" r="8"/>
	<circle class="st1" cx="946.8" cy="1011.3" r="7.6"/>
	<circle class="st2" cx="1054.5" cy="95.4" r="4.6"/>
	<circle class="st2" cx="457" cy="479.6" r="8.3"/>
	<circle class="st2" cx="1457.4" cy="836.8" r="7.2"/>
</g>
<g id="check">
	<path class="st3" d="M163.7,833.7c7.7,3.2,18.5,7.1,31.9,9.8c25.7,5,46,2.6,56.3,1.2c12.8-1.7,49.7-7.8,105.1-39.4
		c54.7-31.1,90.5-65.9,117.4-92.4c29.2-28.7,50.2-54.2,56.4-61.9c37.3-45.7,48.3-70.3,88.2-108.7c24-23.1,37.2-30.8,44.9-34.8
		c7.5-3.9,29.4-14.5,77.9-18.8c32.6-2.9,55.9-1,95.8,2.4c44.9,3.8,79.5,9.5,106.9,14c30.4,5,55.9,10,74.3,13.9
		c5.8-10.8,14.4-28.4,21.7-51.2c10.1-31.4,9.4-46.8,21-113.9c5.4-31.3,8.1-47.2,12.2-60.7c10.8-35.7,26.5-62.7,38.4-80.3
		c4.4,11.8,8.8,23.5,13.3,35.3c4.7-5.8,11.7-13.3,21.5-20.3c10.2-7.3,19.9-11.6,27.1-14.2c-1.1,4.8-2.4,13.4-0.3,23.7
		c1.8,8.7,5.3,15.2,7.8,19.1c4.5-3.7,9.1-7.5,13.6-11.2c11.2-9.2,22.4-18.4,33.6-27.6c2.6,5.3,5.1,10.6,7.7,15.9
		c5,10.4,10,20.7,15.1,31.1c8.4-7.7,17-16.1,25.7-25.2c5.1-5.4,10-10.7,14.6-16c3.1,5,6.3,10.6,9.3,16.9c5.4,11.3,9,22,11.4,31.2
		c3-4.9,6.9-10.3,11.7-15.5c16.8-18.3,36.6-26.3,48.7-29.9c-1.2,4.8-2.2,9.7-3.1,14.9c-3.5,19.8-4,38-3.1,53.7
		c2.6-2.4,6.3-5.5,11-8.8c12.4-8.8,24.3-13.4,32.4-15.8c5.9-1.8,13.8-3.7,23.4-4.5c-5.7,6.4-13.3,15.9-20.8,28.5
		c-8.4,14.2-14.8,29.3-20.5,50.3c-11.1,40.5-12.1,74.7-13.2,120.3c-0.4,16.6-0.3,28.6-0.1,52.6c0.2,18.7,0.5,52.2,2.3,87.7
		c2.9,55.9,6.6,61,10.9,130.7c2.9,46.8,2.2,60.8,1.3,71.9c-3.4,38.8-12.7,67.5-18,81.8c-5.5,15-12.2,33-26.6,53.5
		c-12,17.2-23.8,33.6-45.6,42.5c-15,6.1-28.8,6.2-37.4,5.5c-20.9,1-46.4,1.3-75.4-0.4c-9.6-0.6-33.4-2.1-64.4-6.6
		c-55.8-8.1-95.5-20.1-108.4-24.1c-10.2-3.2-23.9-8.6-51.2-19.4c-9.4-3.7-15.8-6.3-23.5-11.8c-5.1-3.6-16.7-12-24.9-27.7
		c-1-1.9-5.5-10.8-7.6-23.5c-2.4-14.8-0.2-26.2,2.1-37.3c2.1-10.2,6.1-24.6,14.5-40.8c-10.7,11.7-24.1,27.2-38.7,46.2
		c-24.3,31.5-39.6,56.8-42.7,61.9c-12.7,21.1-14.3,27-36.5,71.9c-27.1,54.8-40.9,82.6-55.3,101.8c-24.8,33.2-49.5,53.1-57.5,59.4
		c-26,20.3-50.9,32.8-69.4,40.5c4-5.6,10.2-15.7,13.3-29.7c3-13.6,1.9-25.1,0.7-31.8c-5.2,4.7-11.3,9.6-18.3,14.3
		c-20.8,13.9-41.3,20.4-56.6,23.7c2.8-8.9,5.5-19.3,7.2-31.1c2.8-18.5,2.5-34.8,1.4-47.7c-6.3,7.5-14.6,16.1-25.3,24.4
		c-18.3,14.1-36.2,21.8-49.2,26.1c4.2-7.1,9-16.8,12.3-29c4.9-17.9,4.5-33.5,3.5-43.6c-4.8,4.6-11.1,9.7-19,14
		c-24.6,13.6-49.2,12.1-60.4,10.6c3.4-4.9,7.1-11,10.3-18.4c6.5-15.4,7.7-29.5,7.6-38.7c-4.9,5-10.8,10.3-18,15.2
		c-24.6,16.9-50.1,20.6-64.8,21.3c3.8-4.7,7.8-10.4,11.5-17.2c8.2-15.1,11.2-29.4,12.4-39.4c-11.5,6.3-21.6,11-29.4,14.3
		c-23.9,10.2-33.1,10.9-41.1,8.3c-3.2-1.1-5.7-2.4-7.3-3.5c5.7-6.5,11.7-14.3,17.6-23.3c10.4-16.2,17.1-31.6,21.4-44.2
		c-3.7,1.7-10.3,4.6-18.8,7c-16,4.6-28.5,4.9-71,5.1c-12.4,0.1-22.3,0.1-27.8,0.1c8.1-3.7,17.1-8.6,26.4-15
		c15.7-10.6,27.5-22.1,36-31.8c-3.9,0.8-9,1.6-15.1,2.2c-4.1,0.4-17.7,1.7-34,0.3c-23.2-2-42.5-8.6-54.2-13.4
		c7.1-2.3,12.8-4.7,16.9-6.4c10.7-4.6,17.6-7.6,24.9-13.8c4.6-3.9,7.8-7.8,9.7-10.4c-9.6-1.9-20.9-4.9-33-10
		C191.9,858.9,174.5,844.4,163.7,833.7z"/>
	<path class="st4" d="M933.9,790.1c-2.9,5-7.3,13-11.6,23.1c-8.2,19.2-15.4,36-13.3,57.4c1.5,15.4,7.2,26.7,9.1,30.2
		c1.3,2.4,5.7,10.3,13.7,18.4c16.1,16.4,35.9,22.9,48.9,27c47.9,15.1,71.9,22.7,78.1,24.2c24.5,5.7,61,14.1,110.7,18.4
		c28.8,2.5,63.4,3.8,102.5,1.6c-5.6-0.8-14.8-2.8-23.7-9.4c-2.5-1.8-13-9.9-19.9-30.8c-6.1-18.4-6.1-36.4-3.1-56.6
		c5.8-38.6,19.8-67.5,35.5-99c9.6-19.3,13.4-24.3,27.6-53.5c9.4-19.3,16.5-34.9,21.3-55.9c4.2-18,4.3-29.1,2.8-39
		c-1-6.5-2.6-16.6-9.4-27.5c-7.7-12.3-17.9-19-23.5-22.1c-13.6,0.3-31.5,1.5-52.2,4.8c-17.2,2.8-53.6,9.8-96,28.4
		c-49.6,21.7-81.7,48.1-111.1,72.6C996.6,722,965.6,750.8,933.9,790.1z"/>
	<g>
		<g>
			<path d="M166.7,834.9c70.9,34.5,155.1-3.6,215.4-43.3c63.9-42.2,116.7-98.9,165-157.8c12.4-15.1,24.5-30.4,36.5-45.7
				c12.3-15.7,24.3-31.9,38-46.5c13.8-14.6,29.6-26.9,48-35.3c18.3-8.3,38.2-12.7,58.1-15c42-4.7,85.1-1.4,127,2.7
				c44.9,4.4,89.5,11.7,133.7,20.9c88.4,18.4,175,44.6,260.9,72.2c10.8,3.5,21.6,7,32.4,10.5c1.8,0.6,2.6-2.3,0.8-2.9
				c-85.8-27.9-172-55.1-260-75.4c-84.9-19.6-173.1-34.2-260.5-33.1c-37.5,0.5-76.6,5.6-109.2,25.4c-33.3,20.2-55.6,54.2-79.3,84.2
				c-47.5,60.2-97.4,119.6-157.8,167.4c-30.2,23.9-63.1,44.6-98.4,60.1c-37,16.3-79.5,27-119.9,18.8c-10.2-2.1-20-5.4-29.4-10
				C166.5,831.5,164.9,834.1,166.7,834.9L166.7,834.9z"/>
		</g>
	</g>
	<g>
		<g>
			<path d="M162.6,834.7c24.5,22.9,54.4,39.4,86.9,47.9c1.9,0.5,2.7-2.4,0.8-2.9c-32-8.3-61.4-24.5-85.6-47.1
				C163.3,831.3,161.2,833.4,162.6,834.7L162.6,834.7z"/>
		</g>
	</g>
	<g>
		<g>
			<path d="M247.4,882.1c-12.5,15-31.5,21-49.6,26.4c-1.5,0.5-1.3,2.3,0,2.9c33.1,13.9,69.7,17.6,104.9,10.7
				c-0.6-0.7-1.1-1.5-1.7-2.2c-14.2,22.9-39.1,35.1-62.6,46.4c-1.4,0.7-0.7,2.8,0.8,2.8c22.1-0.1,44.3,0.5,66.3-0.6
				c19.3-0.9,38.7-4.1,55.6-14.2c1.7-1,0.1-3.6-1.5-2.6c-17.4,10.4-37.5,13.2-57.5,13.9c-20.9,0.8-41.9,0.4-62.9,0.4
				c0.3,0.9,0.5,1.9,0.8,2.8c24-11.5,49.2-24.1,63.7-47.5c0.7-1.2-0.5-2.4-1.7-2.2c-34.7,6.7-70.7,2.9-103.3-10.7c0,1,0,1.9,0,2.9
				c18.5-5.5,38.1-11.7,50.9-27.2C250.7,882.7,248.6,880.6,247.4,882.1L247.4,882.1z"/>
		</g>
	</g>
	<g>
		<g>
			<path d="M355.6,956c-4.9,15.4-12.1,29.9-21.4,43c-4.5,6.3-9.7,11.9-14.8,17.7c-2.6,3-4.8,7.2-0.6,9.9c4.5,2.9,12.4,1,17.3,0.4
				c7.2-0.9,14.2-2.3,21.2-4.3c14.8-4.3,28.8-11.2,41.3-20.3c1.6-1.1,0.1-3.7-1.5-2.6c-11.2,8.1-23.5,14.4-36.6,18.7
				c-6.2,2-12.5,3.6-19,4.7c-3.8,0.6-7.6,1.1-11.4,1.4c-2.3,0.2-8,1.4-9.9-0.6c-2.8-2.9,3.9-8.1,5.8-10.1c2-2.3,4-4.7,5.9-7.1
				c3.7-4.7,7.2-9.6,10.3-14.7c6.9-11.1,12.2-23,16.2-35.4C359,954.9,356.2,954.1,355.6,956L355.6,956z"/>
		</g>
	</g>
	<g>
		<g>
			<path d="M395.1,1003.4c-2.8,20.7-11.3,40-24.7,56c-0.8,0.9-0.3,2.6,1.1,2.6c32.1-1.4,62.8-15.1,85.3-38c1.4-1.4-0.8-3.5-2.1-2.1
				c-21.9,22.4-51.8,35.8-83.2,37.2c0.4,0.9,0.7,1.7,1.1,2.6c13.8-16.4,22.6-36.1,25.5-57.3C398.3,1002.3,395.4,1001.4,395.1,1003.4
				L395.1,1003.4z"/>
		</g>
	</g>
	<g>
		<g>
			<path d="M452,1025.6c0.2,19.6-5.7,38.5-16.9,54.6c-0.6,0.8,0,2,0.9,2.2c29.7,8.6,59.3-6.9,82.1-24.8c1.5-1.2-0.6-3.3-2.1-2.1
				c-22,17.3-50.6,32.3-79.2,24c0.3,0.7,0.6,1.5,0.9,2.2c11.5-16.5,17.5-36,17.3-56.1C454.9,1023.7,451.9,1023.7,452,1025.6
				L452,1025.6z"/>
		</g>
	</g>
	<g>
		<g>
			<path d="M515.7,1060.5c0.6,23.7-5.2,47-16.9,67.7c-0.6,1.1,0.4,2.6,1.7,2.2c29.1-9.5,55-27,74.7-50.5c1.2-1.5-0.9-3.6-2.1-2.1
				c-19.4,23.1-44.8,40.3-73.4,49.7c0.6,0.7,1.1,1.5,1.7,2.2c12-21.1,18-44.9,17.3-69.2C518.6,1058.6,515.6,1058.6,515.7,1060.5
				L515.7,1060.5z"/>
		</g>
	</g>
	<g>
		<g>
			<path d="M573.7,1080.5c1.6,25.8-1.5,51.6-9.2,76.3c-0.4,1.2,0.8,2,1.8,1.8c27.3-4.8,52.6-17.7,72.6-36.9c1.4-1.3-0.7-3.5-2.1-2.1
				c-19.7,18.9-44.5,31.4-71.3,36.1c0.6,0.6,1.2,1.2,1.8,1.8c7.8-24.9,11-51,9.3-77.1C576.5,1078.6,573.5,1078.6,573.7,1080.5
				L573.7,1080.5z"/>
		</g>
	</g>
	<g>
		<g>
			<path d="M640.6,1120.8c1,20.8-4.1,41.3-14.9,59.2c-0.8,1.3,0.8,2.7,2.1,2.1c27.5-14.1,55.1-28.6,79.3-48.1
				c20.8-16.8,38.2-37.3,53-59.5c30.3-45.5,49.9-96.8,75.1-145c28.8-55.1,68.7-103.4,109.8-149.7c41.2-46.6,86.7-90.3,139.7-123.2
				c52.5-32.6,112.9-54.9,175.2-56.3c7.5-0.2,15,0,22.5,0.4c1.9,0.1,1.9-2.9,0-3c-61.1-3.4-121.5,13.7-175,42.3
				c-54.3,29-101.2,69.8-143.2,114.3c-21.5,22.8-41.8,46.7-61.6,71c-20,24.6-39.5,49.7-55.7,77c-28.2,47.5-47.6,99.5-75,147.4
				c-13.5,23.6-29.2,46.2-48.4,65.6c-22.2,22.3-49.1,38.9-76.7,53.6c-6.8,3.6-13.7,7.2-20.6,10.7c0.7,0.7,1.4,1.4,2.1,2.1
				c11-18.3,16.3-39.3,15.3-60.7C643.5,1118.9,640.5,1118.9,640.6,1120.8L640.6,1120.8z"/>
		</g>
	</g>
	<g>
		<g>
			<path d="M1278.9,597.8c16.8,8.2,27.4,24.9,31.2,42.9c4.7,22.4-1.1,45.6-8.8,66.7c-15.1,40.7-39,77.3-56.6,116.9
				c-16.3,36.7-27.8,77.8-19.7,118.1c3.2,15.9,9.9,32.8,24.2,41.8c14.8,9.3,33.8,7.7,49.6,1.9c32.1-11.8,53.8-41.3,67.9-71.2
				c17.5-37.1,26.9-78.4,29.2-119.3c2.5-45-7.6-88.7-10.6-133.4c-3-46.2-4-92.7-4.7-139c-0.6-42.5-1-85.5,3.8-127.8
				c4.1-36.8,12.9-74.1,32.9-105.8c5-8,10.8-15.5,17.1-22.4c1.3-1.4-0.8-3.6-2.1-2.1c-50.8,55.7-54,137-54.8,208.4
				c-0.5,45.7,1,91.5,2.6,137.2c0.8,22.8,1.5,45.6,3.6,68.4c2.1,22.3,6.1,44.4,8.2,66.8c4.1,43-0.2,86.7-12.8,128.1
				c-10.6,34.8-26.7,71.2-55.6,94.6c-14,11.4-31.9,19.5-50.1,19.3c-21.4-0.3-35.7-14.4-42.2-33.9c-13.5-40.4-2.1-85.2,14-123
				c16.4-38.4,39.2-73.7,55.1-112.4c13.9-34,24.4-77-1.3-108.4c-5.1-6.2-11.3-11.2-18.5-14.7
				C1278.7,594.3,1277.2,596.9,1278.9,597.8L1278.9,597.8z"/>
		</g>
	</g>
	<g>
		<g>
			<path d="M926.9,799.8c-13.1,27.3-26.1,59.7-15.7,90.1c8.5,24.9,31,40.7,53.9,51.4c28.4,13.2,59.3,22,89.6,29.7
				c33.1,8.4,66.7,14.4,100.7,18c38.8,4.2,77.8,5.1,116.7,3c1.9-0.1,1.9-3.1,0-3c-65.6,3.6-131.5-1.7-195.7-15.9
				c-31.4-6.9-62.5-15.8-92.5-27.1c-23.7-8.9-49.2-21.2-63.2-43.3c-20.3-31.8-5.9-70.3,8.9-101.2C930.3,799.5,927.7,798,926.9,799.8
				L926.9,799.8z"/>
		</g>
	</g>
	<g>
		<g>
			<path d="M1020.1,519.7c42.9-74.1,33.6-163.7,60.2-243.1c7.5-22.5,18.1-44,32.9-62.7c1.2-1.5-0.9-3.6-2.1-2.1
				c-53.4,67.4-47.9,158.2-67.1,237.7c-5.8,24-14,47.3-26.4,68.7C1016.5,519.9,1019.1,521.4,1020.1,519.7L1020.1,519.7z"/>
		</g>
	</g>
	<g>
		<g>
			<path d="M1112,213c2.5,12.5,6.6,24.5,12.1,35.9c0.4,0.8,1.8,1,2.4,0.3c12.7-15.5,29.2-27.2,48-34c-0.6-0.6-1.2-1.2-1.8-1.8
				c-3.3,15.2-0.6,30.8,7.7,43.9c0.6,0.9,1.6,0.9,2.4,0.3c15.7-12.9,31.5-25.9,47.2-38.8c-0.8-0.1-1.6-0.2-2.4-0.3
				c7.6,15.7,15.2,31.3,22.8,47c0.4,0.9,1.7,0.9,2.4,0.3c14.1-13,27.6-26.8,40.2-41.2c-0.8-0.1-1.6-0.2-2.4-0.3
				c9.2,14.8,16.1,30.8,20.6,47.7c0.3,1.3,2.1,1.4,2.7,0.4c13.5-21.8,34.8-37.8,59.5-44.7c-0.6-0.6-1.2-1.2-1.8-1.8
				c-5.4,22.6-7.5,45.8-6.3,69.1c0.1,1.3,1.6,1.9,2.6,1.1c18.2-16.5,41.3-26.6,65.8-28.7c1.9-0.2,1.9-3.2,0-3
				c-25.3,2.3-49.1,12.6-67.9,29.6c0.9,0.4,1.7,0.7,2.6,1.1c-1.3-23,0.8-45.9,6.2-68.3c0.3-1.1-0.7-2.2-1.8-1.8
				c-25.4,7.2-47.3,23.7-61.3,46.1c0.9,0.1,1.8,0.2,2.7,0.4c-4.6-17.1-11.6-33.3-20.9-48.4c-0.5-0.8-1.7-1.1-2.4-0.3
				c-12.7,14.5-26.1,28.2-40.2,41.2c0.8,0.1,1.6,0.2,2.4,0.3c-7.6-15.7-15.2-31.3-22.8-47c-0.5-0.9-1.7-0.9-2.4-0.3
				c-15.7,12.9-31.5,25.9-47.2,38.8c0.8,0.1,1.6,0.2,2.4,0.3c-7.9-12.4-10.6-27.2-7.4-41.6c0.2-1-0.7-2.3-1.8-1.8
				c-19.3,7-36.3,18.9-49.3,34.8c0.8,0.1,1.6,0.2,2.4,0.3c-5.4-11.2-9.3-23-11.8-35.2C1114.5,210.3,1111.6,211.1,1112,213L1112,213z
				"/>
		</g>
	</g>
	<g>
		<g>
			<path d="M1088.6,367.1c46.1,7.4,92.3,14.7,138.4,22.1c1.9,0.3,2.7-2.6,0.8-2.9c-46.1-7.4-92.3-14.7-138.4-22.1
				C1087.5,363.9,1086.7,366.8,1088.6,367.1L1088.6,367.1z"/>
		</g>
	</g>
	<g>
		<g>
			<path d="M1316.6,385.5c-1.6,8.4-2.7,16.8-3,25.4c-0.1,1.9,2.9,1.9,3,0c0.4-8.3,1.3-16.5,2.9-24.6
				C1319.8,384.4,1316.9,383.6,1316.6,385.5L1316.6,385.5z"/>
		</g>
	</g>
	<g>
		<g>
			<path d="M1330.6,390.7c1.6-2,3.3-3,5.8-3.4c-0.6-0.5-1.3-1-1.9-1.4c1,8.3-2.2,16.3-9.1,21.3c-0.5,0.4-0.9,1-0.7,1.7
				c1.1,4.1,4,8.2,8.7,8.3c4.2,0.1,7.6-3.4,7.2-7.6c-0.2-1.9-3.2-1.9-3,0c-0.6,1.3-1.3,2.7-1.9,4c-2.5,1-4.4,0.6-5.7-1.2
				c-1.4-1.2-2-2.6-2.4-4.4c-0.2,0.6-0.5,1.1-0.7,1.7c7.6-5.6,11.7-14.4,10.6-23.9c-0.1-1.1-0.9-1.6-1.9-1.4c-3,0.4-5.3,1.7-7.2,4.1
				C1327.3,390.1,1329.4,392.3,1330.6,390.7L1330.6,390.7z"/>
		</g>
	</g>
	<g>
		<g>
			<path d="M1364.7,392.9c-1.3-4.1-5.6-5.9-9.6-4.3c-3.4,1.3-9.7,7.1-7.8,11.2c0.8,1.6,2.3,2,3.9,2.4c3.9,1,6.8,1.1,8.4,5.4
				c3.8,10.6-12.2,12.9-14.1,3c-0.4-1.9-3.2-1.1-2.9,0.8c1.7,9.1,16.1,12.5,19.8,3c1.6-4,0.4-9-2.6-12c-1.6-1.6-3.3-2.1-5.4-2.8
				c-2.4-0.8-4.4-1.1-3.1-3.9c1.4-3.1,8.5-7.9,10.4-2C1362.4,395.6,1365.3,394.8,1364.7,392.9L1364.7,392.9z"/>
		</g>
	</g>
	<g>
		<g>
			<path d="M1352.8,377.2c0.5,4.1,1.1,8.3,1.6,12.4c0.2,1.9,3.2,1.9,3,0c-0.5-4.1-1.1-8.3-1.6-12.4
				C1355.6,375.3,1352.5,375.3,1352.8,377.2L1352.8,377.2z"/>
		</g>
	</g>
	<g>
		<g>
			<path d="M1351.6,423.3c0.5,3.7,0.1,7.3-1.1,10.8c-0.6,1.8,2.3,2.6,2.9,0.8c1.3-3.8,1.7-7.7,1.2-11.6
				C1354.4,421.4,1351.4,421.4,1351.6,423.3L1351.6,423.3z"/>
		</g>
	</g>
	<g>
		<g>
			<path d="M1075.3,435.1c16.9,1.2,33.4,4.5,49.4,9.9c1.8,0.6,2.6-2.3,0.8-2.9c-16.3-5.5-33.1-8.8-50.2-10
				C1073.3,431.9,1073.3,434.9,1075.3,435.1L1075.3,435.1z"/>
		</g>
	</g>
	<g>
		<g>
			<path d="M1150.9,448.4c33.3,8.9,67.1,16,101.1,21.3c1.9,0.3,2.7-2.6,0.8-2.9c-34.1-5.4-67.8-12.5-101.1-21.3
				C1149.8,445,1149,447.9,1150.9,448.4L1150.9,448.4z"/>
		</g>
	</g>
	<g>
		<g>
			<path d="M1306.2,476.4c-0.9-4.5-0.2-9,2.3-12.9c1.7-2.6,6.3-5.2,8.4-1.8c1.1,1.9,1.6,4.4,1.7,6.5c0.2,3.9-0.8,9-4.8,10.6
				c-3.4,1.4-8.4-0.4-8.4-4.5c0-1.9-3-1.9-3,0c-0.1,5.5,5.6,8.7,10.6,7.8c6.9-1.2,9.1-9.1,8.4-15.2c-0.6-5.1-3.9-12.9-10.5-9.9
				c-7.1,3.3-9.1,13.2-7.7,20.1C1303.7,479.1,1306.6,478.3,1306.2,476.4L1306.2,476.4z"/>
		</g>
	</g>
	<g>
		<g>
			<path d="M1327,482.1c1.9,0,1.9-3,0-3C1325.1,479.1,1325.1,482.1,1327,482.1L1327,482.1z"/>
		</g>
	</g>
	<g>
		<g>
			<path d="M1327.4,479.4C1327.4,479.2,1327.5,479.4,1327.4,479.4c-0.3,0.4-0.2,0.4-0.5,0.6c-0.1,0.1,0,0.1-0.1,0
				c-0.2-0.1,0,0,0.1,0c0.1,0,0.1,0-0.1,0c0,0,0.1,0,0.1,0c0,0,0.2,0.1,0,0c0,0,0.2,0.1,0.2,0.1c0,0-0.3-0.3-0.2-0.1
				c0.1,0.1-0.1,0,0-0.1c0-0.1,0,0.2,0,0.2c-0.1,0.2-0.2,0.4-0.3,0.5c-0.3,0.5-0.8,0.9-1.3,1.2c0.7,0,1.4,0,2.1,0
				c-0.4-0.4-0.6-1.1-0.4-1.6c0.3-0.7,0.2-1.6-0.5-2.1c-0.6-0.4-1.7-0.2-2.1,0.5c-0.8,1.8-0.5,3.8,0.9,5.3c0.6,0.6,1.5,0.5,2.1,0
				c0.9-0.8,1.9-1.7,2.3-2.9c0.4-1.2,0.1-2.5-0.9-3.3c-1.6-1.3-4.6-0.8-4.5,1.7C1324.5,481.3,1327.5,481.3,1327.4,479.4
				L1327.4,479.4z"/>
		</g>
	</g>
	<g>
		<g>
			<path d="M1341.1,461c4-0.6,7.9-0.3,11.7,0.8c1.9,0.5,2.7-2.4,0.8-2.9c-4.4-1.3-8.8-1.5-13.3-0.8
				C1338.4,458.4,1339.2,461.3,1341.1,461L1341.1,461z"/>
		</g>
	</g>
	<g>
		<g>
			<path d="M1339.3,461.9c0,3.2-0.4,6.3-1.2,9.4c-0.3,1,0.5,1.9,1.4,1.9c4.3,0.1,10.5,3.7,9,9c-1.1,3.9-6.6,5.5-9.3,2.5
				c-1.3-1.4-3.4,0.7-2.1,2.1c4,4.5,11.7,2.5,14-2.9c3.2-7.4-4.9-13.6-11.5-13.7c0.5,0.6,1,1.3,1.4,1.9c1-3.4,1.4-6.6,1.4-10.2
				C1342.2,460,1339.2,460,1339.3,461.9L1339.3,461.9z"/>
		</g>
	</g>
	<g>
		<g>
			<path d="M1060,490.4c56,10.5,111.4,24.2,165.8,41.1c1.8,0.6,2.6-2.3,0.8-2.9c-54.4-16.9-109.8-30.7-165.8-41.1
				C1058.9,487.2,1058.1,490.1,1060,490.4L1060,490.4z"/>
		</g>
	</g>
	<g>
		<g>
			<path d="M1306,540.8c1-3.5,1.4-6.9,1.3-10.5c-0.1-1.9-3-1.9-3,0c0,6.7,0,13.4,0,20.1c0,1.9,3,1.9,3,0c0-6.7,0-13.4,0-20.1
				c-1,0-2,0-3,0c0.1,3.4-0.2,6.5-1.2,9.8C1302.6,541.9,1305.5,542.7,1306,540.8L1306,540.8z"/>
		</g>
	</g>
	<g>
		<g>
			<path d="M1326.6,551.3c-2.2-2.8-3.3-6-3.1-9.6c0.3-4.3,3.2-11.1,8.6-9.2c5.2,1.8,4.8,8.6,3.5,12.9c-1.2,4-6.8,11.9-11.2,5.9
				c-1.1-1.5-3.7,0-2.6,1.5c3.7,5,10.4,3.9,14-0.8c3.8-5.1,5.6-14.4,1.2-19.6c-4.1-4.9-10.3-4-13.8,1c-4,5.9-3.5,13.9,0.8,19.4
				C1325.2,554.3,1327.8,552.8,1326.6,551.3L1326.6,551.3z"/>
		</g>
	</g>
	<g>
		<g>
			<path d="M1350.6,527.1c0.8,2.5,1.5,5,2.3,7.5c0.6,1.8,3.5,1.1,2.9-0.8c-0.8-2.5-1.5-5-2.3-7.5
				C1352.9,524.5,1350,525.3,1350.6,527.1L1350.6,527.1z"/>
		</g>
	</g>
	<g>
		<g>
			<path d="M1362.1,538c0-8.4-12-4.6-14,0.9c-1.1,3.1,1.8,4.5,4.3,5.1c2.7,0.6,5.5,2.4,4.5,5.7c-1,3.4-5.5,3.2-7.4,0.9
				c-1.3-1.5-3.4,0.7-2.1,2.1c3.8,4.5,12,2.9,12.7-3.4c0.3-2.7-1-5.6-3.3-7c-1.3-0.9-3-0.7-4.3-1.4c-1.4-0.1-1.6-0.7-0.5-2
				c0.5-0.5,1-0.9,1.5-1.3c1.3-1,5.8-3.3,5.8,0.4C1359.1,539.9,1362.1,539.9,1362.1,538L1362.1,538z"/>
		</g>
	</g>
	<g>
		<g>
			<path d="M1351.7,556.6c0,2.1,0,4.2,0,6.2c0,1.9,3,1.9,3,0c0-2.1,0-4.2,0-6.2C1354.7,554.7,1351.7,554.7,1351.7,556.6
				L1351.7,556.6z"/>
		</g>
	</g>
	<g>
		<g>
			<path d="M759.5,517.4c48.1,7.8,95.5,19,142.1,33.4c1.8,0.6,2.6-2.3,0.8-2.9c-46.5-14.4-94-25.5-142.1-33.4
				C758.4,514.2,757.6,517.1,759.5,517.4L759.5,517.4z"/>
		</g>
	</g>
	<g>
		<g>
			<path d="M980,572.5c17.9,4.8,35.4,10.8,52.6,17.8c1.8,0.7,2.6-2.2,0.8-2.9c-17.2-7-34.7-13-52.6-17.8
				C978.9,569.1,978.1,572,980,572.5L980,572.5z"/>
		</g>
	</g>
	<g>
		<g>
			<path d="M1089.9,592.4c0.9-1.5,1.9-1.5,3,0c2.9,1.1,2.4,2.7-1.5,4.7c-1.4,0.7-3.1,0.5-4.6,0.4c-1.7-0.1-2.1,2.6-0.4,2.9
				c4.4,0.9,5.5,6,3.1,9.4c-1.6,2.4-4.5,3.8-7.3,4.5c-6.3,1.6-17.1-2.5-13-10.7c0.9-1.7-1.7-3.2-2.6-1.5
				c-5.6,11.3,8.5,17.8,17.7,14.7c4.4-1.5,8.8-4.8,9.4-9.7c0.6-4.5-2.2-8.8-6.7-9.7c-0.1,1-0.3,2-0.4,2.9c4.8,0.2,11.7-2,10.6-8.1
				c-0.3-1.8-1.5-3.8-3.2-4.5c-2.8-1.3-4.3,0.6-6.4,2.3C1086.3,591.6,1088.4,593.7,1089.9,592.4L1089.9,592.4z"/>
		</g>
	</g>
	<g>
		<g>
			<path d="M1124.9,591.1c-0.3,1.9-1.4,3.3-3.1,4.1c-0.7,0.3-0.9,1.4-0.5,2.1c0.4,0.8,1.3,0.9,2.1,0.5c2.3-1.1,4.1-3.3,4.5-5.8
				c0.1-0.8-0.2-1.6-1-1.8C1126.1,589.9,1125.1,590.3,1124.9,591.1L1124.9,591.1z"/>
		</g>
	</g>
	<g>
		<g>
			<path d="M1131.4,601.5c-5.8-6.9-17-6.8-22.7,0.2c-0.7,0.9-0.5,2.2,0.7,2.5c3.9,1.1,7,2.9,10,5.7c-0.1-0.6-0.2-1.2-0.2-1.8
				c-3.4,4.8-9.3,6.6-14.9,4.7c-1.8-0.6-2.6,2.3-0.8,2.9c6.9,2.3,14-0.2,18.2-6.1c0.4-0.5,0.2-1.4-0.2-1.8c-3.3-3.1-7-5.2-11.3-6.5
				c0.2,0.8,0.4,1.7,0.7,2.5c4.8-5.8,13.6-5.9,18.5-0.2C1130.5,605.1,1132.6,603,1131.4,601.5L1131.4,601.5z"/>
		</g>
	</g>
	<g>
		<g>
			<path d="M1106.6,612.9c-3,2.8-6.1,5.6-9.1,8.3c-1.4,1.3,0.7,3.4,2.1,2.1c3-2.8,6.1-5.6,9.1-8.3
				C1110.2,613.7,1108.1,611.6,1106.6,612.9L1106.6,612.9z"/>
		</g>
	</g>
	<g>
		<g>
			<path d="M614.9,627.1c64.9,24.5,130.2,47.6,196.1,69.2c18.6,6.1,37.3,12.1,56,18c1.8,0.6,2.6-2.3,0.8-2.9
				c-66.1-20.8-131.8-43.1-197-66.8c-18.4-6.7-36.8-13.5-55.2-20.5C613.9,623.5,613.1,626.4,614.9,627.1L614.9,627.1z"/>
		</g>
	</g>
	<g>
		<g>
			<path d="M559.3,714.2c77,24.1,153.3,50.3,228.8,78.6c1.8,0.7,2.6-2.2,0.8-2.9C713.3,761.6,637,735.4,560,711.3
				C558.2,710.7,557.4,713.6,559.3,714.2L559.3,714.2z"/>
		</g>
	</g>
	<g>
		<g>
			<path d="M858.6,787.1c-10.1,0.3-21.4,5.8-28.7,12.8c-4.5,4.4-6.9,13.9,0.7,16.7c5.6,2.1,15.9-1,15.8-8.1
				c-0.1-3.2-2.4-5.9-5.3-7.1c-4.8-2.1-10,0.1-14.4,2.1c-1.8,0.8-0.2,3.4,1.5,2.6c3.2-1.4,7.1-3.4,10.8-2.3c3.6,1,4.7,3.5,3.3,7.6
				c-1.1,1-2.3,1.8-3.7,2.2c-2.5,0.8-6.5,1.3-8.6-0.8c-2.7-2.8-1.1-7.1,1-9.6c3-3.6,7.9-6.1,11.9-8.3c5-2.7,10-4.5,15.7-4.7
				C860.5,790.1,860.5,787.1,858.6,787.1L858.6,787.1z"/>
		</g>
	</g>
	<g>
		<g>
			<path d="M879.8,793.5c-2.5,2.5-5,5-7.4,7.5c-1.4,1.4,0.8,3.5,2.1,2.1c2.5-2.5,5-5,7.4-7.5C883.2,794.3,881.1,792.2,879.8,793.5
				L879.8,793.5z"/>
		</g>
	</g>
	<g>
		<g>
			<path d="M881.9,806.7c-4.9-2.9-10.4-4.3-16.2-3.6c-3.2,0.4-9.6,1.5-11.1,5c-1.7,3.8,3.3,5.7,5.6,7.4c3.6,2.5,8.2,7.7,2.6,11.2
				c-4.9,3.1-10.1-1-13.2-4.5c-1.3-1.4-3.4,0.7-2.1,2.1c3.5,3.8,8.5,7.5,14.1,6.1c4.1-1,7.5-4.6,7-9c-0.7-5.5-5.7-6.6-9-10
				c-2-2.1-1.2-3.2,1.4-4.1c2.3-0.9,4.7-1.3,7.1-1.4c4.4-0.1,8.6,1.1,12.3,3.4C882,810.3,883.5,807.7,881.9,806.7L881.9,806.7z"/>
		</g>
	</g>
	<g>
		<g>
			<path d="M852.4,829.8c-2.5,2.9-5,5.8-7.5,8.7c-1.3,1.5,0.9,3.6,2.1,2.1c2.5-2.9,5-5.8,7.5-8.7
				C855.8,830.4,853.7,828.3,852.4,829.8L852.4,829.8z"/>
		</g>
	</g>
	<g>
		<g>
			<path d="M411.2,808.9c78.4,59.9,164.8,109.1,256.2,146c25.9,10.5,52.2,19.9,78.8,28.4c1.8,0.6,2.6-2.3,0.8-2.9
				c-94-29.9-183.9-72.4-266.6-126.3c-23.2-15.1-45.7-31-67.7-47.8C411.2,805.2,409.7,807.8,411.2,808.9L411.2,808.9z"/>
		</g>
	</g>
	<g>
		<g>
			<path d="M379.3,856.4c24.5,25,52.6,46.2,83.5,62.8c1.7,0.9,3.2-1.7,1.5-2.6c-30.6-16.4-58.6-37.4-82.9-62.3
				C380.1,852.9,377.9,855,379.3,856.4L379.3,856.4z"/>
		</g>
	</g>
	<g>
		<g>
			<path d="M655,986.6c6.6,1.8,13.2,3.6,19.8,5.3c1.9,0.5,2.7-2.4,0.8-2.9c-6.6-1.8-13.2-3.6-19.8-5.3
				C653.9,983.2,653.1,986.1,655,986.6L655,986.6z"/>
		</g>
	</g>
	<g>
		<g>
			<path d="M653.8,985.7c-2.9,4.4-5.3,8.9-7.3,13.8c-0.5,1.3,1.2,2.2,2.2,1.7c5.4-2.9,6.3,4.1,5.6,7c-0.6,2.5-2.2,4.5-4.3,5.9
				c-4.7,3.1-10.7,1.7-14-2.8c-1.1-1.5-3.8,0-2.6,1.5c5.5,7.3,16.3,8.2,21.9,0.3c2.4-3.4,3.4-8.4,1.1-12.1c-2-3.4-5.8-4.2-9.2-2.4
				c0.7,0.6,1.5,1.1,2.2,1.7c1.9-4.6,4.2-8.9,7-13C657.5,985.6,654.9,984.1,653.8,985.7L653.8,985.7z"/>
		</g>
	</g>
	<g>
		<g>
			<path d="M687.1,999.8c-3.7,2.9-8.3,5.7-11.6,9.2c-1.3,1.4-2,2.9-0.6,4.5c1.9,2.1,6.3,3.1,8.9,3.7c4.1,1,8.4,1.2,12.6,0.7
				c1.9-0.2,1.9-3.2,0-3c-5.3,0.6-13,0.6-17.6-2.6c-1.4-1-1.4-0.3-0.6-1.7c0.6-1,2.3-1.8,3.2-2.5c2.6-2,5.1-4.1,7.7-6.1
				C690.8,1000.7,688.6,998.6,687.1,999.8L687.1,999.8z"/>
		</g>
	</g>
	<g>
		<g>
			<path d="M701.6,1005.4c-8.3,10-16.6,19.9-24.9,29.9c-1.2,1.5,0.9,3.6,2.1,2.1c8.3-10,16.6-19.9,24.9-29.9
				C704.9,1006.1,702.8,1003.9,701.6,1005.4L701.6,1005.4z"/>
		</g>
	</g>
	<g>
		<g>
			<path d="M730.3,1005.5c-2.5,2.9-4.9,5.9-7.4,8.8c-1.2,1.5,0.9,3.6,2.1,2.1c2.5-2.9,4.9-5.9,7.4-8.8
				C733.7,1006.1,731.6,1004,730.3,1005.5L730.3,1005.5z"/>
		</g>
	</g>
	<g>
		<g>
			<path d="M733.6,1021.6c-3.9-3.9-9.3-5.7-14.8-4.9c-3.5,0.5-11.2,3.4-10.9,8c0.1,1.6,1,2.4,2.4,3c4.5,2.1,10.5,0.9,9.9,8.3
				c-0.9,11.3-16.5,11.1-22,3.8c-1.1-1.5-3.7,0-2.6,1.5c6.9,9.2,24.1,9.4,27.4-3.3c1.4-5.6-1.9-11.1-7.5-12.4
				c-1.6-0.3-4.7,0.1-3.4-2.6c1-1.9,4.9-2.9,6.9-3.3c4.6-0.8,9.2,0.6,12.5,4C732.9,1025.1,735,1023,733.6,1021.6L733.6,1021.6z"/>
		</g>
	</g>
	<g>
		<g>
			<path d="M699.9,1046c-0.9,2.5-1.8,5-2.6,7.4c-0.6,1.8,2.3,2.6,2.9,0.8c0.9-2.5,1.8-5,2.6-7.4
				C703.4,1044.9,700.5,1044.1,699.9,1046L699.9,1046z"/>
		</g>
	</g>
	<g>
		<g>
			<path d="M465.5,895.2c38.7,28.1,78.9,54.2,120.4,78c1.7,1,3.2-1.6,1.5-2.6c-41.5-23.8-81.7-49.9-120.4-78
				C465.4,891.5,463.9,894.1,465.5,895.2L465.5,895.2z"/>
		</g>
	</g>
</g>
<g id="coin">
	<ellipse class="st5" cx="653" cy="147.5" rx="40.8" ry="45.4"/>
	<ellipse class="st5" cx="662.2" cy="147.5" rx="40.8" ry="45.4"/>
	<g>
		<g>
			<path d="M661.4,115.5c0,4.2,0,8.4,0.1,12.7c0,1.9,3,1.9,3,0c0-4.2,0-8.4-0.1-12.7C664.4,113.6,661.4,113.6,661.4,115.5
				L661.4,115.5z"/>
		</g>
	</g>
	<g>
		<g>
			<path d="M674.9,127.5c-6.9-1.7-14.5-1.7-20.3,3c-4.3,3.5-7.9,10.4-3.9,15.4c4.9,6,13.3,2.4,19.7,4c9.3,2.3,5.5,11.6-1,14.8
				c-4.9,2.4-10.4,2.2-14.8-1.1c-1.5-1.2-3,1.4-1.5,2.6c5.4,4.1,12.6,3.9,18.4,0.8c5-2.7,10-8.8,7-14.7c-3.3-6.4-11.1-5.5-17.1-5.6
				c-2.7,0-7.6-0.3-8.9-3.3c-1.7-4,1.1-8.2,4.1-10.6c5-4,11.6-3.9,17.5-2.4C676,130.9,676.8,128,674.9,127.5L674.9,127.5z"/>
		</g>
	</g>
	<g>
		<g>
			<path d="M663.8,169c0,3,0,6.1,0,9.1c0,1.9,3,1.9,3,0c0-3,0-6.1,0-9.1C666.8,167.1,663.8,167.1,663.8,169L663.8,169z"/>
		</g>
	</g>
	<g>
		<g>
			<path class="st6" d="M642.5,69c4.8,7.8,9.6,15.6,14.4,23.3c0.7,1.1,2.4,0.9,2.7-0.4c5.2-17.7,11.8-34.9,19.8-51.6
				c0.8-1.7-1.8-3.3-2.6-1.5c-8.1,16.9-14.8,34.3-20.1,52.3c0.9-0.1,1.8-0.2,2.7-0.4c-4.8-7.8-9.6-15.6-14.4-23.3
				C644.1,65.8,641.5,67.3,642.5,69L642.5,69z"/>
		</g>
	</g>
</g>
<g id="hand_right">
	<path class="st3" d="M616,233.7c-2.2,1.1,0.3,10.8,2,16c2.2,6.5,6.5,15.8,15.9,25.6c1.1,4,3.2,9.9,7.5,15.9
		c4.6,6.5,9.7,10.1,14.4,13.5c3.8,2.8,9.2,6.2,16.3,9.2c0.4,3.8,1.4,12.5,1.9,16.4c13.1,114.8,5.8,44.6,11.7,94.8
		c2.1,18,2.8,25.2,6.4,36.3c4.6,14.2,10.7,25,15.3,31.9c2.9,1.1,6.9,2.5,11.9,3.7c3.2,0.7,16.3,3.6,33.9,1
		c19.9-3,33.9-11.2,54.4-23.3c16.6-9.8,27.5-18.6,35-24.7c16.9-13.8,22.3-21.1,24-23.5c6.3-8.9,8.8-16,12.9-27.5
		c3.9-10.8,4.2-15.6,2.4-20c-1.9-4.6-5.4-7.4-8-8.9c-4.6,1.2-10.3,2.9-16.9,5.3c-6.7,2.5-15.4,6.2-24.6,11.4
		c-4.3,2.4-10.8,6.4-26.4,18.6c-25.1,19.7-27.9,24.8-41.4,32.4c-10.4,5.9-19.8,9.1-25.8,10.8c-1.1-3.6-2.9-9.2-5.5-15.9
		c-5.5-13.9-8.6-16.8-12.5-26.8c-3.4-8.5-4.7-16.1-7.2-31.2c-2.1-12.3-3.3-19.6-3.4-30c-0.2-15.2-0.2-22.8,1.9-32.3
		c1.2-5.4,2.8-10.5,0.9-16.9c-0.7-2.4-2.9-5.4-7.2-11.2c-4.7-6.4-9.9-12.4-14.1-19c-4.7-7.4-6.2-11.5-10.5-12.3c-2-0.4-4.7,0-6,1.6
		c-2.2,2.6-0.9,8.4,4.2,13.8c-3.3-0.7-8.2-2.1-13.2-5.4c-5.6-3.6-8.7-7.8-14.4-15.6c-3.6-4.9-9.3-13.3-12.2-17.6
		c-4.1-6-6.3-9.5-8.3-9c-1.9,0.4-2.7,4.5-3,7.4c-0.5-0.3-4.1-2.4-6.2-1.1c-2.2,1.4-2.6,6.5,0.8,11.9C620.2,236,617.4,233,616,233.7z
		"/>
	<path class="st4" d="M672.4,317.6c0.5,5.2,1.3,12.2,2.5,20.5c3,20,6.7,36.2,11.4,53.9c11.4,43.7,17.4,65.7,26.6,74
		c1.8,1.7,18.2,16,40.8,15.7c18.5-0.3,31.2-10.4,51.7-27c35.3-28.7,58.6-47.8,72.6-59.3c-0.5,5.5-1.9,13.7-6.2,22.4
		c-4.3,8.8-10,15-18.3,22.4c-11.4,10.2-23.2,17.6-46.2,32c-20.6,12.9-31,19.4-38,21.7c-21.5,7.3-37.3,5.2-40.7,4.7
		c-9.8-1.4-17.5-4.5-22.5-7c-2.7-4.4-6.5-11-10.1-19.6c-8.1-19.2-9.7-35.4-10.6-43.6C682.7,404,678,366,672.4,317.6z"/>
	<path class="st7" d="M706.7,635.9"/>
	<g>
		<g>
			<path d="M740,449.5c12.8-2.7,23.9-9.7,34.5-17.1c12.1-8.5,24.1-17.2,35.9-26.2c22.1-16.8,46.6-39,76.6-34.6
				c1.9,0.3,2.7-2.6,0.8-2.9c-27.8-4.1-50.9,13.3-71.6,29.3c-12.7,9.8-25.5,19.3-38.6,28.6c-11.8,8.4-23.9,16.9-38.3,20
				C737.3,447.1,738.1,449.9,740,449.5L740,449.5z"/>
		</g>
	</g>
	<g>
		<g>
			<path d="M741.1,451c-2.4-12.1-8.9-22.7-13.8-33.9c-5.3-12.2-9.3-25-12-38c-5.4-26.1-5.3-53.2,0.1-79.3c0.4-1.9-2.5-2.7-2.9-0.8
				c-5.3,25.5-5.6,51.9-0.8,77.5c2.5,13.2,6.3,26.2,11.5,38.6c5.1,12.2,12.4,23.7,15,36.8C738.6,453.7,741.5,452.9,741.1,451
				L741.1,451z"/>
		</g>
	</g>
	<g>
		<g>
			<path d="M713.9,300.6c2.4-7.5-5.1-14.5-9.2-20c-6.2-8.3-12.2-16.9-18.6-25.1c-2.9-3.7-7.2-6.3-11-1.9c-4.6,5.4-0.1,11.6,3.8,15.9
				c1.3,1.4,3.4-0.7,2.1-2.1c-1.6-1.8-4.3-4.4-4.6-6.9c0.2-1.4,0.4-2.8,0.5-4.2c1.7-0.3,3.4-0.6,5.2-0.9c0.9,0.4,2,2.5,2.6,3.3
				c3.3,4.4,6.6,8.9,9.9,13.3c3.1,4.2,6.2,8.4,9.3,12.5c3,4.1,8.9,9.8,7.2,15.4C710.4,301.7,713.3,302.5,713.9,300.6L713.9,300.6z"
				/>
		</g>
	</g>
	<g>
		<g>
			<path d="M672.8,312.5c-10.2-5.1-21-10.7-28.3-19.7c-9.3-11.4-8.8-28.1-9.9-42.1c-0.3-3.3-0.6-6.7-0.7-10c0-1.7,0-3.4,0.1-5.1
				c0.1-0.7,0.9-6.9,1.9-7.3c3.2-1.3,5.3,17.9,5.5,19.7c1.5,10.7,3.9,22,12.9,29c1.5,1.2,3.6-0.9,2.1-2.1
				c-13.8-10.7-10.5-29.9-15.3-44.8c-1-3.1-3.1-8.3-6.9-4.7c-4.4,4.2-3.5,14.2-3.1,19.4c0.6,9.4,1.5,18.7,2.7,28
				c0.8,6.5,2.3,12.7,5.9,18.3c7.4,11.3,20,18,31.7,23.9C673,316,674.5,313.4,672.8,312.5L672.8,312.5z"/>
		</g>
	</g>
	<g>
		<g>
			<path d="M636.7,276.4c-7.4-9.1-15.1-18.5-18.2-30.1c-0.7-2.7-1.7-6.3-1.3-9.2c0.2-1.3-0.3-2.1,1.5-1.7c0.8,0.2,2.2,3.4,2.7,4.1
				c3.4,5.2,6.8,10.3,10.1,15.5c1.1,1.6,3.7,0.1,2.6-1.5c-2.7-4.1-5.3-8.1-8-12.2c-1.9-2.8-4-8.4-7-10.2c-4.4-2.8-4.9,3.3-4.9,6.2
				c0,16.2,10.6,29.5,20.3,41.3C635.8,280,637.9,277.9,636.7,276.4L636.7,276.4z"/>
		</g>
	</g>
	<g>
		<g>
			<path d="M625.9,240.3c-0.8-1.9-1.5-3.9-2-5.9c-0.2-0.9-1.7-5.6-0.9-6.2c0.8-0.6,7.3,8.1,8,9c1.2,1.5,3.3-0.6,2.1-2.1
				c-2.2-2.7-4.3-5.6-6.7-8.2c-1.3-1.5-3.4-2.8-5.3-1.3c-1.5,1.2-1.3,3.3-1.1,5c0.5,3.6,1.5,7.1,2.9,10.4
				C623.8,242.8,626.7,242,625.9,240.3L625.9,240.3z"/>
		</g>
	</g>
	<g>
		<g>
			<path d="M631.5,232.8c0.1-2.1-0.7-3.9-1.3-5.9c-0.3-0.9-0.6-1.8-0.5-2.8c0.1-0.6,0.1-1.1,0.6-1.5c0.1-0.1,1.8-0.8,1.5,0.2
				c-0.5,1.9,2.4,2.7,2.9,0.8c0.9-3.5-3.6-5.7-6.3-3.6c-4.2,3.3,0.2,8.8,0,12.7C628.4,234.7,631.4,234.7,631.5,232.8L631.5,232.8z"
				/>
		</g>
	</g>
	<g>
		<g>
			<path d="M635.7,224.5c7.9,20.2,22.6,36.9,41.6,47.3c1.7,0.9,3.2-1.7,1.5-2.6c-18.3-10-32.6-26-40.3-45.5
				C637.9,221.9,635,222.7,635.7,224.5L635.7,224.5z"/>
		</g>
	</g>
	<g>
		<g>
			<path d="M670.1,314.8c5,33.8,9.3,67.7,13,101.6c2.9,26.9,6.1,55.3,22.9,77.6c1.1,1.5,3.8,0,2.6-1.5c-17.7-23.4-20-53.6-23.1-81.7
				c-3.6-32.3-7.7-64.6-12.4-96.7C672.8,312.1,669.9,312.9,670.1,314.8L670.1,314.8z"/>
		</g>
	</g>
	<g>
		<g>
			<path d="M707.5,494.4c30.4,13.3,63.7,3.3,91-12.6c14.7-8.6,28.8-18.6,42.3-28.9c12.1-9.2,23.6-19.5,31.4-32.7
				c8.9-15.1,12.5-32.9,10.5-50.3c-0.2-1.9-3.2-1.9-3,0c1.7,15.2-0.8,30.7-7.7,44.4c-6.7,13.4-17.4,24-29,33.1
				c-12,9.5-24.6,18.3-37.5,26.5c-13.4,8.6-27.7,16.2-43.1,20.3c-17.5,4.7-36.4,4.9-53.3-2.5C707.2,491.1,705.7,493.6,707.5,494.4
				L707.5,494.4z"/>
		</g>
	</g>
</g>
<g id="leg_right">
	<path d="M617.7,829.6c5.3,16.7,10.6,33.4,15.9,50.2c-15,12.6-28.3,21-38.1,26.6c-12,6.9-25.6,13.2-31.5,27c-0.8,2-3.5,8-1,10.7
		c2.5,2.8,9.2,0.7,14-1c18.2-6.5,32.5-15.1,37-17.8c22.2-13.2,25-10.8,51.3-26.7c7.4-4.5,13.4-8.5,17.4-11.2
		c-1.3-6.3-3.3-15.1-5.8-25.5c-2.8-11.7-5.7-23.7-10.4-38.9c-2.2-7-5.2-16.4-9.3-27.5C644,806.8,630.9,818.2,617.7,829.6z"/>
	<path class="st3" d="M580.5,829.6c3,1.5,7.4,3.4,12.8,5c17,4.8,31.2,2.1,40.8,0.1c27.5-5.6,48.5-20.2,58.9-28.4
		c-3.2-14.8-6.1-30.3-8.5-46.6c-4.3-27.8-6.8-54-8.1-78.3c6.3,4.1,15.1,9.7,25.9,15.6c15.2,8.4,26.5,14.6,42,19.5
		c12.5,4,26.3,8.3,44.6,7c4.2-0.3,22.4-1.8,42.6-13.2c9.2-5.1,37.1-20.7,46.4-52.7c2.3-8.1,6.3-21.7,0.9-35.5
		c-8.3-21.4-35.6-34.9-68.4-33.7c-8.4-3.5-22-9.2-38.8-16.5c-27.5-11.9-39.5-17.7-60.7-25.6c-29.8-11.2-40.5-12.6-47.6-13.2
		c-10.8-0.8-23.5-1.7-38.2,4.2c-17.3,7-27,19.1-30.7,23.9c-5.6,7.2-10.5,16-16.5,38.3c-6.5,24.1-9.3,45-10.9,63.2
		c-1.3,15.3-3.4,39.8-1.6,72.1C566.7,759.9,570.6,792.4,580.5,829.6z"/>
	<path class="st8" d="M693.1,805.1c-7.5,5-15,10-22.5,15c-0.6-15-1-30.4-1.2-46.1c-0.4-37.9,0.7-74,2.8-108.3
		c7.5,4.1,18.3,9.5,31.7,14.8c17.1,6.7,41.1,16.2,69.6,17.6c14.8,0.7,45-0.1,80.9-18.3c-3.8,9.6-11.4,23.3-25.8,32
		c-7.2,4.4-14,6.3-20.6,8.1c0,0-17.3,4.7-35.9,4.2c-22.6-0.6-60-14.3-97.1-45C681.1,721.1,687.1,763.1,693.1,805.1z"/>
	<g>
		<g>
			<path d="M582,829.2c-17.7-66.1-20.7-135.8-8.4-203.1c5-27.1,11.5-58.7,34-77.1c25.6-21.1,61.4-16.2,90.4-5.9
				c18.9,6.7,37.2,15.1,55.7,23c18.6,7.9,37.3,15.8,55.9,23.7c1.8,0.7,3.3-1.8,1.5-2.6c-34.2-14.5-68.2-29.8-102.8-43.4
				c-28.5-11.2-61.8-19.2-90.8-4.8c-26,12.9-37,41.5-43.2,68.1c-7.9,34.2-11.5,69.5-11.3,104.6c0.2,39.9,5.6,79.8,15.9,118.3
				C579.6,831.8,582.5,831,582,829.2L582,829.2z"/>
		</g>
	</g>
	<g>
		<g>
			<path d="M580.3,831.3c39.1,18.7,80.7-1.8,113.5-23.8c1.6-1.1,0.1-3.7-1.5-2.6c-31.8,21.2-72.5,41.9-110.5,23.8
				C580.1,827.8,578.6,830.4,580.3,831.3L580.3,831.3z"/>
		</g>
	</g>
	<g>
		<g>
			<path d="M694.6,804.7c-9.6-44.5-15.8-89.6-18.5-135.1c-0.1-1.9-3.1-1.9-3,0c2.8,45.7,9,91.1,18.6,135.9
				C692.1,807.4,695,806.6,694.6,804.7L694.6,804.7z"/>
		</g>
	</g>
	<g>
		<g>
			<path d="M675.6,682.5c23.2,15.3,48.7,29.3,75.3,37.7c24.9,7.9,51.5,6.1,74.9-5.8c1.7-0.9,0.2-3.5-1.5-2.6
				c-24,12.2-50.8,13-76.1,4.4c-25.1-8.6-49-21.7-71.1-36.2C675.5,678.9,674,681.5,675.6,682.5L675.6,682.5z"/>
		</g>
	</g>
	<g>
		<g>
			<path d="M619,838.5c5.6,13.5,10,27.4,13.2,41.6c0.2-0.6,0.5-1.1,0.7-1.7c-15.4,9.6-30.2,20.2-44.3,31.6
				c-7.1,5.8-14.1,11.7-20.9,17.9c-3.7,3.4-10.7,8.1-8.2,14c2.5,5.9,9.6,5.9,14.7,4c8.4-3.1,16.5-7.5,24.5-11.4
				c17.6-8.5,35-17.5,52.3-26.7c9.6-5.1,19.4-10,28.9-15.4c1.8-1,4.2-2.4,3-4.8c-0.7-1.5-2.2-1.7-3.6-0.9c-1.7,1-0.2,3.6,1.5,2.6
				c-1.2-0.2-2.4,0.2-3.3,1c-1.1,0.6-2.3,1.2-3.4,1.8c-2.3,1.2-4.5,2.4-6.8,3.6c-4,2.1-7.9,4.2-11.9,6.3
				c-7.9,4.2-15.9,8.4-23.9,12.5c-16.5,8.6-33.2,16.9-50,24.7c-4.3,2-10.6,6.1-15.6,4.5c-8.9-2.8-0.1-10.3,3.1-13.3
				c6.8-6.2,13.7-12.2,20.8-17.9c14.1-11.5,29-22,44.4-31.7c0.6-0.4,0.8-1,0.7-1.7c-3.2-14.3-7.6-28.2-13.2-41.6
				C621.1,835.9,618.2,836.7,619,838.5L619,838.5z"/>
		</g>
	</g>
	<g>
		<g>
			<path d="M665,823.4c5.4,21.5,10.8,42.9,16.2,64.4c0.5,1.9,3.4,1.1,2.9-0.8c-5.4-21.5-10.8-42.9-16.2-64.4
				C667.4,820.7,664.5,821.5,665,823.4L665,823.4z"/>
		</g>
	</g>
</g>
<g id="torso">
	<path class="st1" d="M903.8,348.7c-16.1,10-26,21.4-34,30.8c-25.3,29.4-35.7,60.4-40.2,77.7c-5.2,20.2-2.3,22.7-6.6,42.9
		c-7,32.8-21.2,57.3-31.9,72.7c14.6,14.2,40.5,35.7,78.2,50.7c31.3,12.4,59.3,15.8,78.2,16.5c6.6-21,14.8-48.6,23.1-81.5
		c15.6-61.4,11.2-60.4,26.4-126.6c15.7-68,23-80.8,13.2-92.5C992,317.5,937.6,327.8,903.8,348.7z"/>
</g>
<g id="leg_left">
	<path d="M696.4,849.9c6.6,14,13.3,28,19.9,42c-8.5,8.1-15.1,15.6-20.1,21.6c-14.5,17.7-22.5,32.6-24.1,35.8
		c-3.5,6.6-6,12.4-7.7,16.6c5.1-1,12.5-2.9,20.8-6.5c13.7-6,22.6-13.5,28.7-18.7c15.5-13.3,33.7-29.1,54.1-47.5
		c-3.9-7.8-7.7-15.9-11.5-24.3c-7.4-16.4-13.9-32.3-19.7-47.7C723.3,830.8,709.8,840.4,696.4,849.9z"/>
	<path class="st3" d="M643.3,844c-4.4-8.5-9.8-19.6-15.2-32.6c-6.3-15.1-14.1-35.7-20.7-60.9c-7.5-28.5-11.2-54.1-13.1-75
		c-2.7-30.3-4.3-47.6,1-71c3.8-16.5,8.1-34.4,23.6-49.4c14.6-14.2,31.5-18.4,39.9-20.4c22.7-5.3,41.1-0.9,62.7,4.3
		c24,5.8,41.6,14.1,49,17.9c7.1,3.6,16.4,8.8,63.7,43.2c11.2,8.2,20.6,15.1,27.1,19.9c11.8,5.1,26,10.2,42.5,14
		c9.8,2.3,19,3.8,27.4,4.7c-2,6.5-5.1,14.9-9.6,24.4c-1.8,3.7-9,18.6-22.9,36.5c-9,11.6-17.4,22.2-31.6,32.2
		c-11.1,7.8-19.1,10.5-23,11.7c-9.7,2.9-17.7,2.9-20.8,2.8c-9.4-0.2-18.4-2.5-33.1-9.5c-14.4-6.8-26.4-14.4-40.7-24.6
		c-10.9-7.8-25.3-18.8-41.6-33.1c3.2,9.8,6.7,19.7,10.5,29.8c12.2,32.9,25.7,63,39.7,90.5c0,4.1-0.7,11.1-4.6,18.3
		c-3.1,5.7-7.3,9.8-13.7,14.2c-20.7,14.4-43.5,17.9-43.5,17.9C672.5,853.6,653.2,847.8,643.3,844z"/>
	<path class="st9" d="M690.5,632.1c0.5,13.6,1.4,27.7,3.1,42.4c7,62.9,24,116.7,42.6,159.9c2.8-1.3,12-5.8,17.4-16.5
		c4.2-8.2,3.9-15.9,3.7-19.2c-14.6-36.5-29.2-73-43.9-109.5C705.7,670.1,698.1,651.1,690.5,632.1z"/>
	<path class="st9" d="M690.5,632.1c4.9,5.6,12.3,13.6,21.8,22.7c24.9,23.4,57.2,53.9,93.9,60.1c57.5,9.6,108-43.7,115.4-51.6
		c-5.2,10.9-12.9,24.3-24.3,38.2c-11.8,14.4-21.6,27.1-39.3,36.2c-6.4,3.3-14.9,7.5-26.6,8.4c-4.4,0.3-15.1,0.7-42.1-11.5
		c-5.7-2.6-27-12.4-57.8-34.3c-9.9-7-17.7-13.1-23-17.3C702.6,665.9,696.5,649,690.5,632.1z"/>
	<g>
		<g>
			<path d="M644.6,843.3c-33-64.2-52.1-137.8-50.6-210.2c0.7-32.9,9.7-70,39.8-88.3c15.3-9.3,33.8-10.3,51.3-9.5
				c16.7,0.8,33.1,3.8,49.1,8.7c36.8,11.2,70.2,31.8,99,57.2c1.4,1.3,3.6-0.8,2.1-2.1c-26.1-23-55.8-42-88.5-54
				c-16.2-5.9-33-10-50.1-11.9c-17.4-1.9-36.5-2.4-53.1,3.6c-31.2,11.3-46.9,44-51,75c-2.5,18.7-1.8,37.7-0.4,56.4
				c1.4,18.7,3.9,37.3,7.6,55.7c8.4,42,22.7,82.7,42.3,120.8C642.9,846.5,645.5,845,644.6,843.3L644.6,843.3z"/>
		</g>
	</g>
	<g>
		<g>
			<path d="M689.1,632.5c19,57.3,41.6,113.4,67.8,167.9c0.8,1.7,3.4,0.2,2.6-1.5c-26.1-54.2-48.6-110-67.5-167.1
				C691.3,629.8,688.5,630.6,689.1,632.5L689.1,632.5z"/>
		</g>
	</g>
	<g>
		<g>
			<path d="M642.9,846.6c23.4,11.3,50.1,6.5,73.6-2c20.1-7.3,46.3-20.7,42.1-46.4c-0.3-1.9-3.2-1.1-2.9,0.8
				c4.2,25.7-25.4,38-44.9,44.4c-21.4,7.1-45.5,10.8-66.5,0.6C642.7,843.2,641.1,845.8,642.9,846.6L642.9,846.6z"/>
		</g>
	</g>
	<g>
		<g>
			<path d="M708,681.8c28.9,25.9,60.1,52.3,98.4,62.4c19.6,5.1,38.3,4.3,55.6-6.9c15.9-10.3,29.2-25.1,40.5-40.1
				c13.1-17.6,23.3-37.2,30.2-58c0.6-1.8-2.3-2.6-2.9-0.8c-11.7,34.7-32.8,67.6-61.5,90.6c-7.8,6.2-16.5,11.6-26.2,14
				c-10.4,2.6-21.3,1.4-31.6-1c-18.2-4.3-35.2-12.6-50.8-22.8c-17.7-11.6-33.8-25.5-49.6-39.6C708.7,678.4,706.5,680.5,708,681.8
				L708,681.8z"/>
		</g>
	</g>
	<g>
		<g>
			<path d="M695.1,850.7c6.6,14,13.3,28,19.9,42c0.8,1.7,3.4,0.2,2.6-1.5c-6.6-14-13.3-28-19.9-42
				C696.8,847.4,694.2,849,695.1,850.7L695.1,850.7z"/>
		</g>
	</g>
	<g>
		<g>
			<path d="M715,892.2c-22.7,20.1-40.5,45.2-52.1,73.2c-0.7,1.8,2.2,2.6,2.9,0.8c11.4-27.6,29-52.1,51.4-71.9
				C718.6,893.1,716.4,891,715,892.2L715,892.2z"/>
		</g>
	</g>
	<g>
		<g>
			<path d="M663.8,966.7c9.3,3.4,18.7-3.9,26.3-8.5c9.8-6,19.3-12.4,28.6-19.2c18.1-13.4,34.9-28.4,50.4-44.7
				c1.3-1.4-0.8-3.5-2.1-2.1c-14.5,15.3-30.2,29.4-47,42.2c-8,6-16.2,11.7-24.6,17.1c-4.5,2.8-9,5.6-13.6,8.3
				c-5.2,3-11,6.3-17.1,4.1C662.8,963.1,662,966,663.8,966.7L663.8,966.7z"/>
		</g>
	</g>
	<g>
		<g>
			<path d="M741,832.1c6.8,21,15.2,41.3,25.2,60.9c0.9,1.7,3.5,0.2,2.6-1.5c-9.9-19.4-18.2-39.5-24.9-60.2
				C743.3,829.4,740.4,830.2,741,832.1L741,832.1z"/>
		</g>
	</g>
</g>
<g id="head">
	<path class="st3" d="M901,197.6c-4.4,3.6-8.2,9.1-15.7,20.2c-9.1,13.4-18.5,26.6-23.2,45.6c-2,8.1-5.2,21.8-2.8,39.1
		c3.4,24.6,16,41.7,23,49.8c5-0.4,10.7-1.1,16.8-2.5c8.5-1.8,15.9-4.3,21.9-6.8c2.2,4.8,4.8,9.9,7.8,15.1
		c4.7,8.3,9.6,15.5,14.2,21.8c2.7-2.4,6.7-6.1,11.3-10.9c10.2-10.8,14.3-18,19.7-25.1c16-21,24.4-16.4,35.1-32.9
		c9.6-14.8,10.4-30,10.7-37.1c1.5-27.9-11.4-47.7-15-53.2c-4.5-6.8-13.4-19.6-30.1-27.9C951.8,181.3,920.6,181.5,901,197.6z"/>
	<path class="st8" d="M969,239.2c-1.2,7-3.4,16.9-8.1,28.2c-9.1,21.9-22.1,35.6-35.6,49.5c-9.6,9.9-23.6,22.8-42.6,35.4
		c5.2-0.4,10.9-1.2,16.9-2.5c21.5-4.9,37.6-14.9,48-23c2.5,5.2,5.2,10.4,7.9,15.7c3,5.8,6,11.5,9,17c2.3-4,6-10.2,11-17.5
		c9.6-13.8,14.7-17.9,24.8-31.2c11.3-14.7,16.9-22.1,18.9-30.2c0.9-3.7,6.9-27.3-8.5-40.2C1000.2,231.4,983.3,230.8,969,239.2z"/>
	<path class="st2" d="M870,242.3c2.3-6.9,8-21.3,22.3-32.9c25.4-20.6,56.3-14.8,60.9-13.9c0.4,7.6,2.4,22.9,12.4,38.7
		c7.2,11.3,15.7,18.4,21.4,22.5c1.8,0,8.2,0,13.2,4.7c7.2,6.9,4.8,17.6,4.4,19.1c-0.5,2-1.7,7.2-6.4,11.1c-9,7.6-21.7,2.9-22.2,2.7
		c-2.2,2.8-5.5,7.6-7,14.1c-2.1,8.9-0.1,16.8,3,24.7c9.3,23.8,17.2,44.1,37,51.6c26.3,10,60.3-7.3,73.6-32.2
		c15.4-28.9-3.9-63.3-17.2-87.6c-8.9-16.4-18.9-28.2-25.9-35.7c-2-8.8-7.7-29-25.6-46.7c-3.7-3.7-28.6-27.4-66.2-26.7
		c-31.9,0.6-72.3,18.8-80.6,52.1C863.8,221.7,867.1,234.4,870,242.3z"/>
	<path class="st2" d="M865.7,326.6c-1.2,6.5-2.3,16-1.1,27.4c1.2,11.4,3.1,29.2,13.4,36.5c12.6,9,37.8,2.4,59.5-18
		c-4.7-10.2-9.4-20.4-14-30.6c-5.6,2.4-12.2,4.8-19.7,6.8c-7.5,2-14.4,3.1-20.4,3.8C877.5,343.8,871.6,335.2,865.7,326.6z"/>
	<g>
		<g>
			<path d="M891.2,208.3c-18.1,20.3-31.3,45.4-33.8,72.8c-2.4,26.1,5.6,53.1,23.8,72.3c1.3,1.4,3.4-0.7,2.1-2.1
				c-17.7-18.6-25.3-44.8-22.9-70.1c2.4-26.5,15.4-51,32.9-70.6C894.6,209,892.5,206.9,891.2,208.3L891.2,208.3z"/>
		</g>
	</g>
	<g>
		<g>
			<path d="M882.8,353.7c39.3-2,74.1-25.8,94.6-58.7c1-1.6-1.6-3.1-2.6-1.5c-20,31.9-53.8,55.3-92.1,57.2
				C880.9,350.8,880.8,353.8,882.8,353.7L882.8,353.7z"/>
		</g>
	</g>
	<g>
		<g>
			<path d="M968.1,305.1c-1.6,11.7,0,23.2,4.9,34c0.8,1.8,3.4,0.2,2.6-1.5c-4.5-10-6.1-20.8-4.6-31.7
				C971.2,304,968.3,303.2,968.1,305.1L968.1,305.1z"/>
		</g>
	</g>
	<g>
		<g>
			<path d="M921.6,344c4.1,13.6,11.1,25.9,20.5,36.5c1.3,1.4,3.4-0.7,2.1-2.1c-9.1-10.2-15.8-22.1-19.8-35.2
				C924,341.3,921.1,342.1,921.6,344L921.6,344z"/>
		</g>
	</g>
	<g>
		<g>
			<path d="M943.4,381.3c7.6-2.8,13.1-8.3,17.9-14.6c6.2-8.2,11.5-17,16.2-26.1c0.9-1.7-1.7-3.2-2.6-1.5c-4,7.6-8.3,15-13.2,22
				c-5,7.1-10.6,14.2-19,17.3C940.8,379.1,941.5,382,943.4,381.3L943.4,381.3z"/>
		</g>
	</g>
	<g>
		<g>
			<path d="M911.6,221.9c-13.9,20.1-24.4,42.2-31,65.7c-0.4,1.5,1.4,2.4,2.5,1.5c5.8-5.3,11.6-10.6,17.4-16c1.4-1.3-0.7-3.4-2.1-2.1
				c-5.8,5.3-11.6,10.6-17.4,16c0.8,0.5,1.7,1,2.5,1.5c6.6-23.2,17-45.1,30.7-65C915.3,221.9,912.7,220.4,911.6,221.9L911.6,221.9z"
				/>
		</g>
	</g>
	<g>
		<g>
			<path d="M879.9,302.2c6.5,4.6,14.2,2.9,20.9-0.4c7.4-3.7,14.5-8.5,18.2-16.1c0.9-1.7-1.7-3.2-2.6-1.5
				c-5.1,10.3-23.9,23.4-35,15.4C879.9,298.5,878.4,301.1,879.9,302.2L879.9,302.2z"/>
		</g>
	</g>
	<ellipse transform="matrix(0.3736 -0.9276 0.9276 0.3736 341.1801 973.6035)" cx="891.5" cy="234.2" rx="7.5" ry="2.4"/>
	<ellipse transform="matrix(0.3736 -0.9276 0.9276 0.3736 358.11 1022.0043)" cx="935.8" cy="245.9" rx="7.5" ry="2.4"/>
	<g>
		<g>
			<path d="M893.8,214.8c3.9-3.6,10.3-4.3,13,1.1c0.9,1.7,3.4,0.2,2.6-1.5c-3.5-7.2-12.5-6.6-17.7-1.7
				C890.3,214,892.4,216.1,893.8,214.8L893.8,214.8z"/>
		</g>
	</g>
	<g>
		<g>
			<path d="M933.9,224.3c8-5.1,17.3-3.7,19.9,6.4c0.5,1.9,3.4,1.1,2.9-0.8c-3.1-11.9-14.6-14.3-24.3-8.2
				C930.8,222.8,932.3,225.4,933.9,224.3L933.9,224.3z"/>
		</g>
	</g>
	<g>
		<g>
			<path d="M931.1,263.4c1.9,0,1.9-3,0-3C929.2,260.4,929.2,263.4,931.1,263.4L931.1,263.4z"/>
		</g>
	</g>
	<g>
		<g>
			<path d="M943,260.6c1.9,0,1.9-3,0-3C941,257.6,941,260.6,943,260.6L943,260.6z"/>
		</g>
	</g>
	<g>
		<g>
			<path d="M937.7,272c1.9,0,1.9-3,0-3C935.7,269,935.7,272,937.7,272L937.7,272z"/>
		</g>
	</g>
	<g>
		<g>
			<path d="M875.3,252.3c1.9,0,1.9-3,0-3C873.4,249.3,873.4,252.3,875.3,252.3L875.3,252.3z"/>
		</g>
	</g>
	<g>
		<g>
			<path d="M883.6,252.8c1.9,0,1.9-3,0-3C881.7,249.8,881.7,252.8,883.6,252.8L883.6,252.8z"/>
		</g>
	</g>
	<g>
		<g>
			<path d="M878.3,261.6c1.9,0,1.9-3,0-3C876.4,258.6,876.4,261.6,878.3,261.6L878.3,261.6z"/>
		</g>
	</g>
	<g>
		<g>
			<path d="M987,258.2c12.9-0.6,19.4,12,15.8,23.4c-3.3,10.3-14.7,17.2-24.5,10.4c-1.6-1.1-3.1,1.5-1.5,2.6
				c11.4,7.9,25.1-0.1,28.9-12.2c4.1-13.3-3.8-27.9-18.6-27.2C985.1,255.3,985.1,258.3,987,258.2L987,258.2z"/>
		</g>
	</g>
</g>
<g id="hand_left">
	<path class="st3" d="M995,329.8c-6.2,3.5-9.9,8.6-13.9,15.8c-10,18.2-13.2,35-14.2,39.9c-10.1,52.7-7.2,30.3-11.1,55.5
		c-2.9,18.8-6.4,43.9-9.6,73.9c-3.3,6.4-7,14.7-9.7,24.9c-3.1,11.6-3.7,20.8-4.1,27.5c-2.6,45-1,46.9-3,71.2
		c-1.1,13.7,0.4,27.5-1.4,41.1c-0.5,3.9-1.6,11.9,2.5,19.8c0.8,1.5,3.6,6.7,9.5,10.2c5.3,3.2,10.9,3.2,21.9,3.1
		c8.1-0.1,14.6-0.8,18.7-1.3c10.6-1.4,16.9-1.6,24-4.9c2.7-1.3,7.1-3.3,6.9-5.6c-0.1-0.6-0.6-2.3-8.4-4.6
		c-4.4-1.3-10.7-2.7-18.6-2.9c1.2-1.6,3.2-3.7,6.1-5.5c1-0.6,3.7-2.1,13.3-3.4c5.6-0.8,8.7-1.2,13.1-1c7.5,0.2,9,1.7,13.7,0.5
		c2.8-0.7,4.6-1.7,8.4-3.9c4.2-2.4,6.7-3.9,8.6-6.9c1.7-2.6,2.1-5.3,2.3-7c-2.3-3.2-6.6-8.2-13.4-12c-3.3-1.8-11.1-6.1-21-4.8
		c-7,0.9-11.8,4.1-16.2,7.2c-6.5,4.4-10.8,9.4-13.4,12.9c-6.5,1.4-13.1,2.9-19.6,4.3c6.5-32.3,12.2-59.7,16.6-80.7
		c6.1-28.8,13.5-63.9,23.8-109.6c1-4.5,4.4-18.9,11.1-47.8c4.1-17.6,5.8-35.7,11-53c1-3.4,4.4-14.2,3.9-28
		c-0.3-7.4-1.6-13.5-5.3-19.1c-1.5-2.2-3.7-5.6-7.9-7.9C1009,322,996.6,328.8,995,329.8z"/>
	<path class="st10" d="M1029.8,339.9c-1.9,10.9-5.1,28.6-9.8,50.2c-15,69.7-23.6,81.5-37.1,144.2c-8.2,38.1-13.6,73.5-17.4,98.1
		c-3.1,20.6-5.5,38.2-7.2,51.5c10.1-6,20.3-12.1,30.4-18.1c-6.9,1.7-13.9,3.3-20.8,5c4.3-23.6,8.4-42.8,11.4-56.2
		c4.2-18.8,7.2-30.2,10.8-49.7c2.9-15.8,4.8-28.9,6-37.7c5.9-24.1,12.4-51.2,19.4-80.9c4.3-18.2,5.6-37.1,11.6-54.7
		c2.3-6.8,7.1-19.7,5.6-36.6C1032.1,348.6,1030.8,343.4,1029.8,339.9z"/>
	<path class="st11" d="M990.6,687.8c2.6-0.9,6.3-2.1,10.9-3c7.7-1.5,14-1.4,15.4-1.4c8.5,0.2,9.3,1.8,13.7,0.5c2-0.6,1-0.7,9.8-5.3
		c4.8-2.5,6.8-3.5,7.3-5.5c0.4-1.9-0.8-3.8-1.9-5c-6.1-1.9-12.6-3.7-19.4-5.3c-4-1-7.9-1.8-11.7-2.6c-3.4,3.9-6.7,7.9-10.2,11.8
		C999.8,677.3,995.2,682.6,990.6,687.8z"/>
	<g>
		<g>
			<path d="M943.7,513.8c-11.8,25.6-13.4,53.9-14.4,81.6c-1.1,31.9-2.1,63.8-3.2,95.6c-0.1,1.9,2.9,1.9,3,0c1-30.7,2-61.3,3.1-92
				c0.9-28.4,2-57.5,14.1-83.7C947.1,513.6,944.5,512,943.7,513.8L943.7,513.8z"/>
		</g>
	</g>
	<g>
		<g>
			<path d="M947.7,514.9c2.7-28.8,6.6-57.4,11.8-85.8c2.5-13.7,5.3-27.3,8.4-40.9c3.1-13.3,6.6-26.6,12.9-38.7
				c5.1-9.9,13.5-20.8,25.2-22.9c14.2-2.5,23.6,11.1,25.1,23.7c1.5,13.7-2.8,28.1-5.4,41.4c-2.7,13.7-5.6,27.4-8.6,41.1
				c-6.8,31.1-14.3,62.1-22.4,93c-0.5,1.9,2.4,2.7,2.9,0.8c8.1-30.8,15.6-61.8,22.4-93c3.3-15.3,6.5-30.5,9.6-45.9
				c2.6-13.3,6.7-27.8,4-41.4c-1.9-9.4-8.1-18.9-17.6-22c-10.2-3.3-20.4,2.1-27.4,9.2c-8.8,9-13.9,21.2-17.7,33
				c-4.6,14.2-7.5,28.9-10.5,43.5c-7,34.6-12.1,69.6-15.4,104.8C944.5,516.8,947.5,516.8,947.7,514.9L947.7,514.9z"/>
		</g>
	</g>
	<g>
		<g>
			<path d="M995.2,524.1c-10.1,50.6-20.3,101.1-30.4,151.7c-0.4,1.9,2.5,2.7,2.9,0.8c10.1-50.6,20.3-101.1,30.4-151.7
				C998.5,523,995.6,522.2,995.2,524.1L995.2,524.1z"/>
		</g>
	</g>
	<g>
		<g>
			<path d="M926.5,691.1c1.3,10,8,18.9,17.8,22c6.8,2.2,14.3,1.2,21.3,0.7c7.3-0.5,14.7-0.9,22-1.6c5.9-0.5,11.6-1.7,17-4.3
				c2.7-1.3,8.9-3.7,8.3-7.6c-0.6-3.8-7.1-6.4-10.2-7.3c-2.8-0.9-5.8-1.3-8.7-1.1c-4.3,0.3-8.4,1.8-12.7,0.4
				c-1.8-0.6-2.6,2.3-0.8,2.9c4.6,1.5,8.8,0,13.5-0.3c4.7-0.3,10.6,1,14.2,4.3c2.9,2.8-0.9,4.1-3.5,5.4c-2.4,1.2-4.9,2.3-7.5,3
				c-5.1,1.5-10.4,1.7-15.7,2.1c-10,0.7-20.6,2.5-30.6,1.6c-11-1-19.8-9.2-21.3-20.2C929.3,689.2,926.3,689.2,926.5,691.1
				L926.5,691.1z"/>
		</g>
	</g>
	<g>
		<g>
			<path d="M985.6,694c9.3-7.8,16.8-17.1,24.2-26.6c2.6-3.4,3.7-5.9,8.8-5.2c3,0.4,6.2,1.7,9.1,2.5c6.4,1.7,12.8,3.5,19.1,5.2
				c1.9,0.5,2.7-2.4,0.8-2.9c-7.3-2-14.6-4-21.9-6c-4.9-1.3-10.3-4.3-14.5-0.4c-4.9,4.6-8.6,11.1-13,16.3
				c-4.6,5.4-9.4,10.4-14.8,14.9C982,693.1,984.1,695.2,985.6,694L985.6,694z"/>
		</g>
	</g>
	<g>
		<g>
			<path d="M982.4,672.5c5.1-3.6,9.9-7.4,14.5-11.5c6-5.4,10.9-12.7,19.9-10.9c12,2.4,24.1,7.5,32.1,17.2c1.2,1.5,3.3-0.6,2.1-2.1
				c-8.5-10.4-22.2-16.2-35.3-18.3c-6.6-1.1-10.8,2.4-15.3,6.7c-6.1,6-12.6,11.4-19.6,16.4C979.3,671,980.8,673.6,982.4,672.5
				L982.4,672.5z"/>
		</g>
	</g>
	<g>
		<g>
			<path d="M969.2,673.1c6.1-1.1,12.1-2.5,18.1-4.1c1.9-0.5,1.1-3.4-0.8-2.9c-6,1.6-12,3-18.1,4.1
				C966.5,670.6,967.3,673.4,969.2,673.1L969.2,673.1z"/>
		</g>
	</g>
	<g>
		<g>
			<path d="M1008.6,670.8c8.5-4.4,17.5-0.9,26.1,1.3c5,1.3,11.2,3,15.3-1.3c1.3-1.4-0.8-3.5-2.1-2.1c-5.1,5.4-18.6-1.7-24.7-2.7
				c-5.6-0.9-11-0.6-16,2.1C1005.3,669.1,1006.8,671.7,1008.6,670.8L1008.6,670.8z"/>
		</g>
	</g>
	<g>
		<g>
			<path d="M1001.2,679.5c7-9.2,19.8-2.7,28.7-0.9c6.7,1.4,14,0.9,18.9-4.5c1.3-1.4-0.8-3.5-2.1-2.1c-12.9,14-35.3-10.8-48,5.9
				C997.4,679.5,1000,681,1001.2,679.5L1001.2,679.5z"/>
		</g>
	</g>
	<g>
		<g>
			<path d="M991,689.3c5.3-1.3,10.6-2.8,15.9-4c5.2-1.2,9.5-0.1,14.6,0.4c7.3,0.8,14.8-0.4,20-6c1.3-1.4-0.8-3.5-2.1-2.1
				c-6.7,7.3-15.8,5-24.4,4.1c-8.2-0.9-17,2.8-24.8,4.8C988.3,686.8,989.1,689.7,991,689.3L991,689.3z"/>
		</g>
	</g>
</g>
</svg>
