<?xml version="1.0" encoding="utf-8"?>
<!-- Generator: Adobe Illustrator 23.0.3, SVG Export Plug-In . SVG Version: 6.00 Build 0)  -->
<svg version="1.1" xmlns="http://www.w3.org/2000/svg" xmlns:xlink="http://www.w3.org/1999/xlink" x="0px" y="0px"
	 viewBox="0 0 1600 1200" style="enable-background:new 0 0 1600 1200;" xml:space="preserve">
<style type="text/css">
	.st0{fill:#E8E8E8;}
	.st1{fill:#EC615B;}
	.st2{fill:#5222D0;}
	.st3{fill:#FFFFFF;}
	.st4{opacity:0.14;fill:#848484;}
	.st5{fill:#848484;}
	.st6{fill:#161616;}
	.st7{opacity:0.21;fill:#848484;}
	.st8{opacity:0.15;fill:#848484;}
	.st9{opacity:5.000000e-02;fill:#848484;}
	.st10{opacity:0.13;fill:#848484;}
</style>
<g id="background">
	<g>
		<g>
			<path class="st0" d="M829.1,625.5c33.6,24.2,72,41.6,112.5,50.6c39.1,8.7,79.6,9.2,119.3,5.2c81-8.2,158.9-33.9,239-47.3
				c45.8-7.7,92.6-11.2,138.8-4.6c1.9,0.3,2.7-2.6,0.8-2.9c-80.2-11.4-160.2,7.1-238,25.2c-78.7,18.3-160.3,37.9-241.4,24.9
				c-46.7-7.5-91.2-26-129.5-53.6C829.1,621.8,827.6,624.4,829.1,625.5L829.1,625.5z"/>
		</g>
	</g>
	<g>
		<g>
			<path class="st0" d="M1159.6,730.1c49.1-25.9,104.9-38.3,160.4-35.3c56.2,3,110.3,22.8,166.8,21.8c28.1-0.5,56.4-6.3,80.7-20.9
				c1.7-1,0.1-3.6-1.5-2.6c-48.1,29-106.7,21.5-159.2,11.7c-28.2-5.3-56.4-11.2-85.1-13c-26.2-1.6-52.5,0.3-78.2,5.3
				c-29.8,5.8-58.6,16.1-85.5,30.3C1156.3,728.4,1157.9,731,1159.6,730.1L1159.6,730.1z"/>
		</g>
	</g>
	<g>
		<g>
			<path class="st0" d="M111.2,1030.3c53.4-25.4,114.3-16.6,169.2-1.2c56.4,15.9,110.5,40.2,169,48.1c32.4,4.4,65.4,3.2,96.5-7.6
				c1.8-0.6,1-3.5-0.8-2.9c-59.2,20.6-122.4,5.4-180-13.2c-54.7-17.6-108.9-39.5-167-42.1c-30.4-1.4-60.8,3.2-88.4,16.3
				C108,1028.6,109.5,1031.2,111.2,1030.3L111.2,1030.3z"/>
		</g>
	</g>
	<g>
		<g>
			<path class="st0" d="M374.2,1115.6c17.6,13.6,40.2,15.7,61.7,13.3c25.1-2.8,49.5-10.6,73.8-17.1c54.1-14.5,109.1-28.7,165.5-28.7
				c31,0,62,4.5,91.2,15.1c1.8,0.7,2.6-2.2,0.8-2.9c-50.2-18.3-104.7-18.1-156.9-9.8c-27.9,4.5-55.4,11.1-82.8,18.3
				c-25.4,6.7-50.7,14.6-76.5,19.6c-25.4,4.9-53.8,6.1-75.4-10.6C374.2,1111.8,372.7,1114.4,374.2,1115.6L374.2,1115.6z"/>
		</g>
	</g>
	<g>
		<g>
			<path class="st0" d="M120,78.8c15.2,17.3,35.8,29.4,58.3,34.2c25.6,5.4,51.5,0,75.7-9c51.8-19.2,98.1-51.9,152-65.7
				c30.1-7.7,62-9.3,91.7,1.2c1.8,0.6,2.6-2.3,0.8-2.9c-50.1-17.8-103.6-1.5-149.8,19.9C323.9,67.9,300,81,275.1,92.1
				c-25.3,11.3-52.6,21.5-80.7,20c-27.7-1.5-54-14.7-72.3-35.4C120.8,75.2,118.7,77.3,120,78.8L120,78.8z"/>
		</g>
	</g>
	<g>
		<g>
			<path class="st0" d="M413.5,82.3c25.2-22.5,62.6-20,92.8-11c34.9,10.4,68.1,28.7,105.4,28.5c21.7-0.2,43-5.8,63.5-12.4
				c1.8-0.6,1-3.5-0.8-2.9C655,90.8,635,96.2,614.5,96.8c-19.8,0.6-38.9-4.3-57.5-10.7c-32.7-11.3-65-26.7-100.5-24
				c-16.6,1.3-32.5,6.8-45.1,18C409.9,81.5,412,83.6,413.5,82.3L413.5,82.3z"/>
		</g>
	</g>
	<g>
		<g>
			<path class="st0" d="M111.3,809.6c13.6-15.3,32.3-25.5,52.5-28.8c22-3.5,43.2,2.7,62.9,12c18.9,9,36.7,20.4,56.2,28.2
				c20,8,41.4,12.5,62.9,13.4c24.5,1,49-2.6,72.1-10.8c1.8-0.6,1-3.5-0.8-2.9c-43.5,15.4-92.3,14.4-135-3.3
				c-37.9-15.7-72.5-45.6-116-40c-21.8,2.8-42.3,13.5-56.9,30C107.9,808.9,110,811,111.3,809.6L111.3,809.6z"/>
		</g>
	</g>
	<g>
		<g>
			<path class="st0" d="M404.3,876.8c-0.1-12.5,17.4-17,26.7-20.2c12.3-4.2,24.8-7.7,37.6-10c26-4.8,52.6-4.6,78.2,2.2
				c46.1,12.2,86.7,40.8,134.7,46.9c27.7,3.5,56-0.2,82-10.4c1.8-0.7,1-3.6-0.8-2.9c-24.9,9.8-51.9,13.5-78.5,10.6
				c-26.1-2.9-50.5-12.8-74.3-23.1c-22.4-9.8-44.9-20.1-68.8-25.5c-25.3-5.7-51.5-4.9-76.8,0.1c-15.1,3-30,7.4-44.4,13.1
				c-8.5,3.4-18.6,8.9-18.5,19.3C401.3,878.7,404.3,878.7,404.3,876.8L404.3,876.8z"/>
		</g>
	</g>
	<circle class="st1" cx="271.7" cy="324.2" r="7.8"/>
	<circle class="st1" cx="1149" cy="805.4" r="14.5"/>
	<circle class="st1" cx="1432" cy="133.9" r="7.2"/>
	<circle class="st1" cx="321.3" cy="1018.6" r="11.8"/>
	<circle class="st1" cx="720.8" cy="120.2" r="6.5"/>
	<circle class="st2" cx="236.9" cy="366.7" r="1.1"/>
	<circle class="st2" cx="1251.9" cy="856.7" r="7"/>
	<circle class="st2" cx="1497" cy="208.5" r="10.4"/>
	<circle class="st2" cx="325.9" cy="922.7" r="4.6"/>
	<circle class="st2" cx="946.5" cy="120.2" r="6.5"/>
	<g>
		<g>
			<path class="st2" d="M977.3,621.9c5.5,3.1,11.2,0.3,15.7-3.5c3.7-3.2,7.3-8.3,12.6-8.5c4.1-0.2,7.1,3.1,9.9,5.6
				c4.2,3.7,8.7,6.2,14.4,4.8c5.7-1.5,10.3-5.6,15.5-8.3c7.9-4.1,14-1.5,20.7,3.3c5.8,4.2,11.4,7.9,18.9,6.8
				c7.7-1.2,13.3-6.3,19.7-10.2c10.7-6.5,18.8-0.6,26.5,7.2c1.4,1.4,3.5-0.7,2.1-2.1c-4.8-4.8-10.3-10.2-17.4-11.1
				c-8.4-1.1-14.5,5-21,9c-4.7,2.9-10.3,5.4-16,4.2c-3.4-0.7-6.4-2.7-9.2-4.7c-5.2-3.7-10.4-8.1-17.2-7.8
				c-6.1,0.3-11.3,4.4-16.3,7.4c-2.7,1.6-5.7,3.5-8.9,3.7c-4.5,0.4-7.6-2.4-10.7-5.2c-4.2-3.8-8.7-6.9-14.6-4.8
				c-7.3,2.7-14.4,16.6-23.2,11.6C977.1,618.3,975.6,620.9,977.3,621.9L977.3,621.9z"/>
		</g>
	</g>
	<g>
		<g>
			<path class="st2" d="M148.7,726.1c5.1-9.9,16.7-0.7,22.4,3.3c4.4,3,9.9,5.8,15.4,4.3c5.9-1.6,8.1-7.4,12.1-11.4
				c6.4-6.4,15.5-3.6,22.9-0.5c10.5,4.5,23.4,10.4,32.2-0.3c2.5-3.1,4.6-6.5,8.8-7.4c4.6-1,9.5,1,13.5,3.1
				c6.2,3.2,11.7,7.1,18.9,7.4c1.9,0.1,1.9-2.9,0-3c-12.4-0.5-26.8-18.4-39.1-7.3c-3.2,2.9-4.9,7.2-8.9,9.2c-4.1,2-8.9,1.3-13.1,0.1
				c-7.2-2-13.5-6.3-20.9-7.7c-5.5-1.1-11.2-0.5-15.5,3.4c-6.3,5.7-8.9,15-19.5,10.5c-6.9-2.9-11.9-9.7-19.5-10.8
				c-4.9-0.7-9.9,1-12.2,5.6C145.2,726.3,147.8,727.8,148.7,726.1L148.7,726.1z"/>
		</g>
	</g>
	<g>
		<g>
			<path class="st1" d="M161,191c1.9-7.1,11.1-11.1,17.4-6.9c5.1,3.4,6.7,10.6,13.3,12c6.2,1.4,11.5-3.5,15.1-8
				c5.2-6.5,9.8-12.1,18.9-9.8c11,2.8,21.8,12.7,33.3,6c10.5-6.1,15.5-22,30-18.3c12.6,3.2,21.9,16,35.9,14.2c1.9-0.2,1.9-3.2,0-3
				c-13.4,1.7-22.9-10.9-35.1-14.1c-13.2-3.5-19.7,7.3-28,15.2c-12.9,12.3-24.9-2.1-38.7-3.6c-6.5-0.7-11.5,2.4-15.5,7.4
				c-2.6,3.2-4.8,6.9-8.3,9.3c-6.4,4.2-10.5,0.2-14.3-4.6c-3.8-4.9-8.2-8.1-14.7-7.1c-5.8,0.9-10.7,4.9-12.2,10.6
				C157.6,192.1,160.5,192.9,161,191L161,191z"/>
		</g>
	</g>
	<g>
		<g>
			<path class="st1" d="M1304.5,966.1c3.5-8.6,15,0.1,18.6,3.7c3.7,3.6,7.9,7.8,13.4,8.3c12,0.9,16.8-18.7,29.2-12.7
				c5.2,2.5,8.9,7.3,14.1,9.7c4.1,1.9,8.6,1.9,12.8,0.3c9.2-3.4,16.9-14.1,27.1-14.4c7.6-0.2,10.9,7.8,17.1,10.7
				c4.3,2,9.5,1.8,12.3-2.4c1.1-1.6-1.5-3.1-2.6-1.5c-5.2,7.8-14.4-4.6-18.6-7.3c-3.8-2.5-8.1-3-12.4-1.7c-9.9,3-16.6,13.1-27,14.7
				c-11.9,1.9-17.8-14.5-29.8-12.1c-5,1-8.4,5.1-11.9,8.5c-2.1,2.1-4.5,4.3-7.5,5c-4.9,1.2-9.2-2.5-12.5-5.7
				c-4.5-4.3-8.5-8.6-15-9.3c-4.6-0.5-8.4,1-10.2,5.4C1300.9,967.1,1303.8,967.9,1304.5,966.1L1304.5,966.1z"/>
		</g>
	</g>
</g>
<g id="cape">
	<path class="st3" d="M428.7,386c1.9-7,5-17,10-28.6c28.3-65.7,81.5-98.4,97.9-107.6c21.6-12.2,41.7-23.5,70.1-23.5
		c31,0,57,13.4,64.9,17.8c6.9,3.8,5.2,3.7,25.3,16.7c23.9,15.5,35.8,23.3,46.5,27.9c23.5,10.2,44.7,9.9,57.8,9.7
		c44.5-0.6,77.4-19.5,102.3-34.3c32-18.9,55.5-40.4,91.8-73.7c12.6-11.5,29.5-27.7,56.6-46.7c3.9-2.8,18.8-13.2,34.7-22.2
		c18.7-10.6,63.3-35.2,125.3-40.3c48.7-4,89,5.6,115.2,14.5c-6.8,11.1-14.9,26.6-21.5,46.1c-12.7,37.8-12.1,69.2-11.7,78.8
		c1.7,41.8,16,77.7,19.8,86.9c7.1,17.1,14.3,29.1,16.4,50.6c2.6,26-5,39.3-7.3,42.9c-6.1,9.8-14.2,15.6-19.5,18.6
		c-5.5-3.4-13.8-8.1-24.5-12.8c-20.4-8.9-52.6-23-89.4-15.7c-29,5.7-48.1,22.1-62.5,34.4c-18.8,16.1-15.3,23-38.8,46.5
		c-20.4,20.5-39.4,32.6-46.8,37.1c-15.2,9.3-27.2,14.3-49.1,23.4c-20.3,8.4-30.5,12.7-43.5,15.4c-10.8,2.3-30.5,6.5-53.2,2.4
		c-25.2-4.6-41.7-17.2-61.4-32.6c-6.8-5.3-25.1-20.1-54.6-55.5c-35.5-42.6-53.3-63.9-67.1-91.1c-10.1-20.1-17.3-39.8-38.1-50.5
		c-4.2-2.2-17.3-8.7-31.5-5c-17.3,4.6-26.3,22-28.8,26.2C602.8,361.4,561.5,381.8,428.7,386z"/>
	<path class="st4" d="M632.2,321.7c0.1-4.2,1-19,11.1-25.1c8.5-5.2,19.2-1.5,23.4,0c36.2,12.6,88.5,81.5,127.3,111.7
		c66.4,51.7,156,38.2,174.1,35.5c75.8-11.4,127.4-56.8,160.2-85.7c35.1-30.9,45.2-50.9,110-111.7c23.1-21.6,42.8-38.8,56.2-50.2
		c-1.9,21.7-0.2,39.1,1.7,50.9c3.5,22,10.2,40.3,17.6,60.5c10.4,28.4,13.7,30.5,15.8,45.6c1.7,12.2,4,30.8-6.7,47.9
		c-6.1,9.8-14.3,15.6-19.5,18.6c-4.9-3.5-12.3-8.4-21.8-13.2c-14.4-7.3-49-24.7-90.1-16.5c-29.3,5.9-48.6,22.1-60,31.7
		c-18.7,15.7-16.3,21-36.8,42.9c-30.8,32.7-63.3,49.9-80.6,58.8c-18.9,9.8-35.3,18.3-59.6,23.1c-13.5,2.7-44.8,9-78.6-1.8
		c-26.8-8.5-44.2-26.5-78.9-62.5c-19.1-19.8-43.5-45.1-66-83.7c-6.7-11.5-12.3-22.5-24.3-39.3c-17.5-24.5-34.3-47.3-54.7-46.3
		C643.3,313.5,636.5,318.1,632.2,321.7z"/>
	<path class="st5" d="M804.3,636.9"/>
	<g>
		<g>
			<path class="st6" d="M630.1,323.9c8.3-9.6,22.2-10.4,33.4-5.9c12.9,5.2,21.9,17.2,29.4,28.3c16.8,24.7,33.6,49.3,51.3,73.3
				c17.1,23.1,34.3,46.3,53.2,68c17.6,20.2,37.6,38.9,61.5,51.5c23.1,12.1,48.6,17.4,74.5,13.7c28.4-4,55-16.3,80.9-28.2
				c24.1-11.1,47.9-23.8,66.8-42.7c17.3-17.3,30.5-38.2,47.5-55.8c21.5-22.2,49.1-34.2,80.1-34.6c32.2-0.4,63.1,11.4,90.5,27.6
				c1.7,1,3.2-1.6,1.5-2.6c-45.4-26.9-105.3-41.5-152.7-10.6c-20.7,13.5-35.2,33.8-50.4,52.8c-7.9,9.8-16.1,19.4-25.6,27.7
				c-10.7,9.4-22.7,17.1-35.2,23.8c-12.2,6.6-24.8,12.3-37.5,17.9c-14.1,6.2-28.4,12.2-43.2,16.6c-29.1,8.6-58.5,8.5-86.5-3.8
				c-26.3-11.5-48.1-30.8-67.1-52c-20.4-22.8-38.7-47.7-56.9-72.3c-10.3-14-20.4-28.1-30.3-42.4c-8.9-12.9-17.1-26.5-26.8-38.9
				c-7.9-10.2-17.9-19.5-31-22.1c-10.7-2.1-22.3,0.1-29.7,8.7C626.7,323.2,628.8,325.4,630.1,323.9L630.1,323.9z"/>
		</g>
	</g>
	<g>
		<g>
			<path class="st6" d="M429.6,390c4.8-35.2,31-64.8,53.6-90.5c23.5-26.8,51.1-51.5,85.2-63.8c16.6-6,34.4-9.1,52-7.7
				c17.5,1.4,33.8,7.7,48.9,16.5c27.3,15.9,50.9,38.2,81.2,48.6c64.7,22.2,133.7-10,184.6-49.1c28.1-21.6,53.6-46.1,80.4-69.2
				c26.6-22.9,54.6-43.7,86.1-59.4c60.5-30.1,131.3-42.9,197.9-27.9c7.9,1.8,15.7,4,23.5,6.5c1.8,0.6,2.6-2.3,0.8-2.9
				c-64.1-20.9-134.2-14.9-196.3,9.6c-31.7,12.5-61.1,29.8-88,50.6c-28.9,22.4-55.1,47.8-82.9,71.4c-52.2,44.4-121,87.6-192.8,71
				c-33.1-7.7-58.2-30.1-86.2-47.8c-13.6-8.6-28.3-15.9-44.2-19.2c-16.3-3.3-33.2-2.6-49.3,1.2c-34.4,7.9-63.7,28.8-88.1,53.5
				c-12.5,12.7-24,26.4-35.1,40.4c-10.5,13.4-20.6,27.4-27.3,43.1c-3.3,7.8-5.6,15.8-6.7,24.1C426.4,391.1,429.3,391.9,429.6,390
				L429.6,390z"/>
		</g>
	</g>
	<g>
		<g>
			<path class="st6" d="M1325.7,95.1c-23.7,38.6-35.2,84.1-33.3,129.4c0.9,22,5,43.9,12.3,64.7c8.3,23.6,21.6,46.4,24.1,71.8
				c2.2,21.9-5.2,47.4-26.4,57.6c-1.7,0.8-0.2,3.4,1.5,2.6c16.8-8.1,25.5-25.7,27.7-43.6c2.8-23-6.1-45-14.7-65.8
				c-9.6-23-17.3-46-20.2-70.9c-2.7-23.3-1.7-47,2.7-69.9c5.1-26.3,14.8-51.5,28.8-74.3C1329.3,95,1326.7,93.5,1325.7,95.1
				L1325.7,95.1z"/>
		</g>
	</g>
	<g>
		<g>
			<path class="st6" d="M748.9,333.1c36.1,38.5,74.7,79.1,126.8,94.6c26.5,7.8,54.2,7.1,81.2,2.1c25.2-4.7,49.9-12.6,73.2-23.3
				c26.1-11.9,50.5-27.4,72.6-45.8c1.5-1.2-0.6-3.3-2.1-2.1c-38.5,32.1-84.5,55-133.5,66c-27.2,6.1-55.7,8.7-83.1,2.1
				c-24.5-5.9-47.1-18.2-67.1-33.2c-24.3-18.2-45.1-40.5-65.8-62.6C749.7,329.5,747.6,331.6,748.9,333.1L748.9,333.1z"/>
		</g>
	</g>
</g>
<g id="leg_right">
	<path d="M786.4,956c8.2-0.7,16.6-1.3,25.1-1.8c15.1-0.9,29.7-1.4,43.8-1.7c2.7,1.7,6.4,4.5,9.6,8.9c5.3,7.2,6.2,14.5,7.1,19.6
		c1,5.6,0-2.3,10.3,32.4c9.8,33.1,22.5,80.6,23.8,85.5c-0.4,2.9-1.5,7.3-4.8,8.8c-2.7,1.3-7,0.6-17.1-7.9
		c-12.2-10.3-19.5-20.7-23.2-26c-7.4-10.7-15.1-21.2-22.4-32c-5.7-8.3-14.2-20.7-25.2-35.7c-2.8-1.5-9-4.3-17.2-4
		c-11.8,0.5-19.5,7.3-21.6,9.3C778.5,993,782.5,974.5,786.4,956z"/>
	<path class="st3" d="M552.8,648.6c-5.2,8.9-12.3,21.6-20,37.2c-10.3,20.7-17,37.1-51.3,142.1c0,0-2.7,8.1-20.3,94.1
		c-0.6,2.8-1.9,9.7-0.2,18.1c0,0,1.9,9,8.1,17.5c17,23.4,54.3,34.7,54.3,34.7c44.1,13.4,82.3,18.1,99.4,20
		c25.8,2.9,65.5,6.4,116.1,6.7c23.6,0.1,43.4-0.5,57.4-1.1c-2.3-8.5-4.5-17.3-6.4-26.6c-4.9-22.9-7.7-44.5-9.2-64.1
		c-18.4-1.6-37.6-3.8-57.6-6.9c-48.2-7.4-91.6-18.3-129.6-30.4c2.1-4.9,5.3-12.6,9.2-21.9c15.2-35.5,32.5-76,56.3-121.9
		c7.7-14.9,19-35.9,33.8-60.7c10.9-49.8-24.2-94.1-64-97.1C596.6,586,562.8,610.5,552.8,648.6z"/>
	<path class="st7" d="M614.6,778.3c-13.7,30.4-30.7,71.8-47.2,122.6c28.7,13.5,62.1,27.1,99.8,39.1c43.3,13.7,83.3,22.5,118.2,28
		c-1-13.3-2-26.6-3-39.9c-4-0.4-10.1-1.1-17.4-2c-29-3.5-70.4-8.6-119.3-20.9c-13.1-3.3-31.1-8.2-52.2-15.1
		c4.1-10.6,9.9-25.2,17.2-42.5c17.5-41.4,26.2-62.1,36.9-80.2c12.8-21.7,20.9-46.9,37.9-65.5c1.7-1.9,7.6-8.1,6.9-15.8
		c-0.6-6.3-5.5-13-10-14.1C664.5,667.4,629.2,745.8,614.6,778.3z"/>
	<g>
		<g>
			<path class="st6" d="M534.2,679.2c-17.7,38.2-32.9,77.6-45.3,117.9c-12.5,40.5-23.1,82.4-29.1,124.4c-1.3,9.1-1.4,18.2,2.2,26.8
				c3.3,7.8,8.8,14.5,14.9,20.2c13.1,12.2,29.6,19.9,46.4,25.4c39.9,13.1,82.6,18.8,124.3,22.4c49.2,4.3,98.6,4.5,148,4.6
				c1.9,0,1.9-3,0-3c-83.9-0.3-169-0.6-250.9-21.1c-17.8-4.4-35.6-9.9-51.3-19.6c-16.3-10.1-32-25.8-31.5-46.3
				c0.3-10.5,2.8-21.2,4.8-31.6c1.9-10,3.9-20,6.2-30c4.4-19.9,9.5-39.7,15.3-59.2c13-44.4,29.3-87.7,48.8-129.6
				C537.6,678.9,535,677.4,534.2,679.2L534.2,679.2z"/>
		</g>
	</g>
	<g>
		<g>
			<path class="st6" d="M685.7,698.6c-36.9,57.5-67,119.1-89.7,183.5c-0.6,1.8,2.3,2.6,2.9,0.8c22.7-64.1,52.7-125.5,89.4-182.8
				C689.4,698.5,686.8,697,685.7,698.6L685.7,698.6z"/>
		</g>
	</g>
	<g>
		<g>
			<path class="st6" d="M585.1,888c63,22.4,128.8,36.2,195.5,40.8c1.9,0.1,1.9-2.9,0-3c-66.4-4.6-132-18.4-194.7-40.7
				C584.1,884.4,583.3,887.3,585.1,888L585.1,888z"/>
		</g>
	</g>
	<g>
		<g>
			<path class="st6" d="M780.9,928c1,30.6,5.7,60.9,13.9,90.4c0.5,1.9,3.4,1.1,2.9-0.8c-8.1-29.2-12.8-59.2-13.8-89.6
				C783.8,926.1,780.8,926.1,780.9,928L780.9,928z"/>
		</g>
	</g>
	<g>
		<g>
			<path class="st6" d="M786.4,957.5c19-1.4,38-2.9,57-4.1c4.6-0.3,9.6-0.8,13.8,1.5c3.4,1.9,5.6,5.3,7.2,8.7
				c3.7,8.1,6,17.1,8.7,25.6c11.4,35.4,21.7,71.2,30.8,107.2c0.5,1.9,3.4,1.1,2.9-0.8c-9.9-39.2-21.1-78.1-33.8-116.5
				c-2.4-7.2-4.2-15.6-8.8-21.8c-4.1-5.5-10-7.3-16.7-7.2c-20.3,0.4-40.8,2.9-61.1,4.3C784.5,954.7,784.5,957.7,786.4,957.5
				L786.4,957.5z"/>
		</g>
	</g>
	<g>
		<g>
			<path class="st6" d="M793.4,1004.6c18.7-6.7,30.2,14,38,27.1c8.4,14.2,17.2,28.2,27.2,41.4c9.1,12.1,19.3,24.5,31.3,33.9
				c4.1,3.2,8.9,4.8,13.3,1.2c5.1-4.1,4.7-10.9,3.7-16.8c-0.3-1.9-3.2-1.1-2.9,0.8c0.9,5.1,1.3,13-5.1,14.7
				c-4.8,1.2-8.9-3.7-12.1-6.6c-5.1-4.7-9.9-9.7-14.5-14.9c-10-11.4-18.9-23.9-27.1-36.7c-7.4-11.5-13.4-24.3-21.9-35.1
				c-7.3-9.2-18.9-16.3-30.8-12C790.8,1002.3,791.6,1005.2,793.4,1004.6L793.4,1004.6z"/>
		</g>
	</g>
</g>
<g id="leg_left">
	<path d="M1183.4,998.4c9.5,5.9,19.1,11.8,28.6,17.7c3.8-0.1,9.5,0.2,15.6,2.8c7.6,3.3,12,8.6,14.6,11.7
		c12.9,15.9,19.4,23.8,41.8,53.4c4.6,6,8.4,10.8,10.7,13.7c1.2,1.7,7.8,11.4,4.8,23.2c-1.3,5-3.8,8.7-5.7,10.8
		c-2.6-0.3-6.4-0.9-11-2.2c-16.3-4.4-27.3-13.2-36-20.7c-26.6-22.9-52.1-51.4-57.9-58c-11.1-3.3-22.3-6.6-33.4-9.9
		C1164.7,1026.7,1174,1012.5,1183.4,998.4z"/>
	<path class="st3" d="M618.8,707.9c-0.6-7.9-1-18.7,0.4-31.5c2.5-23.1,7.6-71.5,39.9-87c34.3-16.5,77,14.8,79.2,16.6
		c6.5,7.7,15.8,18.7,27.2,31.7c15,17,76,85.5,159.9,158.5c100.9,87.9,199.2,151.2,259.9,187.5c-1.3,6.6-3.3,13.9-6.3,21.6
		c-8.9,22.7-22.5,38.3-32.5,47.8c-17.3-5.9-41.3-14.6-69.3-26.6c-35.1-15.1-69.6-32.6-133.3-70.5c-76.2-45.4-114.2-68.1-151.6-96.8
		c-33.2-25.5-78.4-63.9-126.7-117.8c-7.9-7.2-13.3-13.8-16.8-18.5c-3.5-4.7-4.8-7.1-8-9.6C633.9,707.9,625.1,707.4,618.8,707.9z"/>
	<path class="st8" d="M694.6,587.1c5.2,8.4,15.1,23.9,28.3,42.7C749,667,870,834.2,1110.2,969.3c14.8,8.3,38.6,21.3,68.8,36.1
		c2.2-7.4,4.3-14.7,6.5-22.1c-72.1-43.5-130-84.6-172.9-117.1c-17-12.9-45.1-34.3-80.7-64.7c-12.7-10.9-70-60.2-141-135.6
		c-23.9-25.4-43.2-47.1-56.6-62.6C721.1,597.8,707.8,592.5,694.6,587.1z"/>
	<g>
		<g>
			<path class="st6" d="M618.8,709.4c10.2-1.2,18.6,4.4,25.6,11.2c7.2,6.9,13.6,14.8,20.3,22.3c13.8,15.3,27.9,30.4,42.4,44.9
				c29.3,29.3,60.7,56.4,94.9,80c35.1,24.3,71.7,46.7,108,69.2c35.5,22,71.5,43.4,108.6,62.8c41.1,21.5,83.5,40.4,127.6,54.8
				c1.8,0.6,2.6-2.3,0.8-2.9c-80.6-26.3-155-67.7-226.9-112c-36.3-22.3-72.6-44.8-107.9-68.6c-35.6-24-68.5-51.4-99.1-81.6
				c-16.6-16.4-32.5-33.4-48.1-50.8c-11.7-13.1-26-34.8-46.2-32.3C616.9,706.6,616.9,709.6,618.8,709.4L618.8,709.4z"/>
		</g>
	</g>
	<g>
		<g>
			<path class="st6" d="M737.3,607.1c49.2,58.6,102.4,113.8,159,165.2c56,50.8,115.4,97.9,177.7,140.8
				c17.8,12.3,35.9,24.2,54.1,35.8c9,5.7,18.1,11.4,27.2,16.9c4.4,2.7,8.9,5.4,13.4,8c1.7,1,16.2,8.5,15.8,9.9
				c0.5-1.9-2.4-2.7-2.9-0.8c-0.1,0.2-0.1,0.4-0.2,0.6c-0.1,0.5,0,1.1,0.4,1.5c3.1,2.8,6.5-0.9,4-4.1c-2.1-2.8-6.8-4.4-9.7-6.2
				c-4.5-2.6-8.9-5.3-13.4-8c-17.3-10.4-34.4-21.2-51.3-32.2c-33.8-22.1-66.8-45.3-99-69.7c-64.1-48.7-124.8-101.9-181.3-159.2
				c-31.9-32.3-62.5-65.9-91.7-100.7C738.2,603.5,736.1,605.6,737.3,607.1L737.3,607.1z"/>
		</g>
	</g>
	<g>
		<g>
			<path class="st6" d="M1148,1053.7c19.9-18.8,33.5-43.3,39-70.1c0.4-1.9-2.5-2.7-2.9-0.8c-5.4,26.3-18.7,50.3-38.2,68.8
				C1144.5,1052.9,1146.6,1055,1148,1053.7L1148,1053.7z"/>
		</g>
	</g>
	<g>
		<g>
			<path class="st6" d="M1159.3,1041.3c10.4,2.8,20.4,6.7,30.1,11.5c1.7,0.9,3.2-1.7,1.5-2.6c-9.9-5-20.1-8.9-30.8-11.8
				C1158.3,1037.9,1157.5,1040.8,1159.3,1041.3L1159.3,1041.3z"/>
		</g>
	</g>
	<g>
		<g>
			<path class="st6" d="M1182.6,999.7c9.4,5.5,18.8,11.2,28,16.9c1.6,1,3.1-1.6,1.5-2.6c-9.2-5.8-18.6-11.4-28-16.9
				C1182.4,996.1,1180.9,998.7,1182.6,999.7L1182.6,999.7z"/>
		</g>
	</g>
	<g>
		<g>
			<path class="st6" d="M1212,1017.6c5-0.2,10.3-0.5,15.1,1c5.5,1.7,9.5,5.6,13.3,9.8c6.6,7.3,12.4,15.2,18,23.2
				c10.5,15,20.5,30.4,33.8,43.2c1.4,1.3,3.5-0.8,2.1-2.1c-15.1-14.5-25.9-32.5-38.1-49.3c-5.5-7.6-11.3-15.6-18.4-21.9
				c-7.4-6.7-16.2-7.3-25.8-6.9C1210,1014.7,1210,1017.7,1212,1017.6L1212,1017.6z"/>
		</g>
	</g>
	<g>
		<g>
			<path class="st6" d="M1189.1,1052.4c21.3,24.3,44.1,47.6,71.1,65.6c6.5,4.4,13.3,8.4,20.3,12c5.1,2.6,11.7,6.2,16.4,0.9
				c9.6-10.6,1.8-28.2-3.2-38.8c-0.8-1.7-3.4-0.2-2.6,1.5c3.2,6.8,6.4,13.9,7,21.5c0.3,3.8-0.1,8.3-2,11.7c-3.6,6-8.6,3.4-13.3,1
				c-11.8-6-22.9-13.2-33.4-21.2c-21.5-16.4-40.4-36-58.1-56.3C1190,1048.9,1187.9,1051,1189.1,1052.4L1189.1,1052.4z"/>
		</g>
	</g>
</g>
<g id="hand_right">
	<path class="st3" d="M428.1,389.6c-2.6,3.8-6.1,9.2-10.2,15.8c-6.7,10.7-18.2,29.1-28.7,51.4c-2.8,5.9-1.7,3.9-25.1,70.2
		c-1.5,4.3-6.6,18.5-9.6,37.7c-2.9,17.7-1.8,26,1.1,33.2c2.6,6.3,6.5,11,12.8,17c8.8,8.3,23.6,20.4,46.5,31.1c4-14.1,8-28.2,12-42.4
		c-7-15.8-14-31.5-21-47.3c2.2-4,5.5-10,9.4-17.2c12.7-23.9,17.5-34.7,24-46.9c5.8-10.9,14.8-26,27.9-43.2
		C454.1,429.2,441.1,409.4,428.1,389.6z"/>
	<g>
		<g>
			<path class="st6" d="M428.2,389.1c-35.9,45.1-55.9,99.8-70.4,155c-0.5,1.9,2.4,2.7,2.9,0.8c14.3-54.6,34.1-109,69.6-153.6
				C431.5,389.7,429.4,387.5,428.2,389.1L428.2,389.1z"/>
		</g>
	</g>
	<g>
		<g>
			<path class="st6" d="M358.2,543.9c-3.7,10.2-5.9,20.9-6.3,31.8c-0.3,9.2,0,19.6,4.5,27.9c4.3,8,12.5,14,19.6,19.4
				c8.7,6.6,18.1,12.3,27.9,17.1c1.7,0.8,3.3-1.8,1.5-2.6c-8.3-4-16.3-8.6-23.8-14c-7.6-5.4-16.9-11.9-21.9-20
				c-5.2-8.3-5.3-19.3-4.8-28.7c0.5-10.3,2.7-20.4,6.2-30.1C361.8,542.9,358.9,542.1,358.2,543.9L358.2,543.9z"/>
		</g>
	</g>
	<g>
		<g>
			<path class="st6" d="M455,459.2c-16.9,31.5-33.3,63.4-49.1,95.4c-0.9,1.7,1.7,3.2,2.6,1.5c15.9-32.1,32.2-63.9,49.1-95.4
				C458.5,459,455.9,457.5,455,459.2L455,459.2z"/>
		</g>
	</g>
	<g>
		<g>
			<path class="st6" d="M392.1,548c20.6,7.9,20.6,36,33.4,51.1c1.2,1.5,3.4-0.7,2.1-2.1c-13.5-15.9-12.8-43.5-34.7-51.9
				C391.1,544.4,390.4,547.3,392.1,548L392.1,548z"/>
		</g>
	</g>
	<path class="st9" d="M431.3,444.3c-7.9,1.4-10,18.2-16.8,42.7c-4.6,16.5-11.4,36.8-22,59.5c8.5,12.3,16.9,24.7,25.4,37
		c-2.7-11.8-5.4-23.6-8.1-35.4c14.4-27.3,28.7-54.7,43.1-82C447.1,455.7,438.7,443,431.3,444.3z"/>
</g>
<g id="torso">
	<path class="st1" d="M485.6,333.4c-14.1,7.8-23.8,16.8-31.5,24c-13.8,12.9-23.5,25.5-29.8,34.8c1.1,18.1,4.1,46.5,14.1,79.6
		c13.4,44.5,30.1,66.9,51.4,111c12.2,25.2,28.7,63.4,43.1,113.5c23.3-5.6,48.7-13.1,75.4-23.2c52.9-20,96.3-44.4,130.1-67.1
		c-22.8-35-36-65.6-43.9-87c-9.4-25.6-36.6-85.8-56.4-168.2c-2.9-12.2-5.1-22.4-6.6-29.6c-42.5-9.1-75.8-6.5-95.3-3.6
		C506.9,322.1,491.4,330.1,485.6,333.4z"/>
</g>
<g id="box">
	<path class="st3" d="M406.3,592.9c0.6,3.5,1.5,9,2.5,15.8c9.7,60.7,11.3,74.1,15.5,96.5c2.4,13,6.3,32.1,12.1,55.5
		c12.4,2.7,28.6,5.5,47.5,6.6c13.3,0.8,39.4,1.4,71.5-4.3c37.6-6.7,68.1-19.4,90.3-31.1c1.8-0.9,4.3-2.3,7.3-4.2
		c11.7-8,17.6-17.9,20.3-22.2c5.1-8,13.6-19,28.5-31.4c-0.7-2-1.7-4.9-3.2-8.4c-5.7-13.4-12.6-22.4-19.7-31.5
		c-4-5.1-9.5-11.8-16.6-19.3c-1.8-7-3.6-14.1-5.3-21.3c-7.1-29.4-12.8-58-17.4-85.7c-5.7,1.9-15,4.9-26.7,8.1
		c-34.3,9.6-56.2,12.2-100.3,20.4c-11.5,2.1-28.8,5.5-50.1,10c-4.2,2.7-8.4,5.5-12.6,8.6C432.7,567.1,418.3,580.2,406.3,592.9z"/>
	<g>
		<g>
			<path class="st6" d="M404.3,589.7c4.6,28.8,9.2,57.6,13.9,86.3c4.5,28.2,8.1,56.8,16.8,84.1c0.6,1.8,3.5,1,2.9-0.8
				c-8.7-27.3-12.3-55.9-16.8-84.1c-4.6-28.8-9.2-57.6-13.9-86.3C406.8,587,404,587.8,404.3,589.7L404.3,589.7z"/>
		</g>
	</g>
	<g>
		<g>
			<path class="st6" d="M436,762.1c70,15.3,144.5,5.3,208-28.1c1.7-0.9,0.2-3.5-1.5-2.6c-62.7,33-136.5,42.9-205.7,27.8
				C434.9,758.8,434.1,761.6,436,762.1L436,762.1z"/>
		</g>
	</g>
	<g>
		<g>
			<path class="st6" d="M583.9,547.2c6.6,15.2,11.6,31,15,47.2c3.1,15,3.1,30.8,9.2,45c13.3,30.7,25.2,61.4,33.2,94
				c0.5,1.9,3.4,1.1,2.9-0.8c-8-32.1-19.4-62.8-32.8-93c-6.7-15.1-6.6-31.8-10.1-47.8c-3.4-15.8-8.5-31.2-14.9-46.1
				C585.7,543.9,583.1,545.4,583.9,547.2L583.9,547.2z"/>
		</g>
	</g>
	<g>
		<g>
			<path class="st6" d="M409.3,593.8c17,0.7,33.9-1.3,50.7-3.8c15.5-2.3,31-4.7,46.3-7.9c28-5.8,55.8-15,78.1-33.5
				c1.5-1.2-0.6-3.3-2.1-2.1C560,565,532,573.9,503.9,579.6c-14.2,2.9-28.5,5.1-42.8,7.2c-17.2,2.6-34.4,4.6-51.8,3.9
				C407.4,590.7,407.4,593.7,409.3,593.8L409.3,593.8z"/>
		</g>
	</g>
	<g>
		<g>
			<path class="st6" d="M411,591.7c12.6-11.2,25.3-22.4,37.9-33.5c6.5-5.7,12.2-10.5,20.8-12.6c7.7-1.9,15.6-3.2,23.5-4.6
				c31.2-5.5,62.7-9.2,93.7-15.8c17.7-3.8,35.1-8.6,51.9-15.1c1.8-0.7,1-3.6-0.8-2.9c-30.7,11.9-63.1,17.9-95.5,23
				c-16.1,2.5-32.3,4.9-48.4,7.7c-14.2,2.5-30.1,3.6-41.5,13.1c-14.9,12.5-29.2,25.8-43.8,38.7C407.4,590.8,409.5,593,411,591.7
				L411,591.7z"/>
		</g>
	</g>
	<g>
		<g>
			<path class="st6" d="M636.8,507.9c-15.1,16.4-33.2,29.5-53.6,38.6c-1.8,0.8-0.2,3.4,1.5,2.6c20.6-9.2,38.9-22.5,54.2-39.1
				C640.2,508.6,638.1,506.5,636.8,507.9L636.8,507.9z"/>
		</g>
	</g>
	<g>
		<g>
			<path class="st6" d="M638.2,508.1c6.4,31.6,12.8,63.2,19.3,94.8c1.2,6.1,2.5,11.9,6.5,16.8c4.2,5.3,9.4,9.7,13.7,14.9
				c4.6,5.8,8.7,12.1,12.5,18.5c1.9,3.3,3.8,6.6,5.6,9.9c0.8,1.5,1.7,3.1,2.5,4.6c0.4,0.8,0.8,1.5,1.2,2.3c0.7,1.7,1.9,3,3.6,3.9
				c-0.4,0.5-0.7,1-1.1,1.4c0.1,0,0.2,0,0.4-0.1c1.9-0.3,1.1-3.2-0.8-2.9c-0.1,0-0.2,0-0.4,0.1c-0.6,0.1-1.1,0.9-1.1,1.4
				c0.1,2.7,3.4,3.5,4.2,0.6c0.6-1.9-1.4-4.6-2.2-6c-1.9-3.6-3.8-7.2-5.8-10.8c-4.2-7.6-8.8-15.1-14-22.1c-4.6-6.1-10.1-11-15-16.7
				c-6.3-7.3-6.9-17.4-8.8-26.4c-2-9.7-3.9-19.4-5.9-29c-3.8-18.7-7.6-37.4-11.4-56.1C640.7,505.4,637.8,506.2,638.2,508.1
				L638.2,508.1z"/>
		</g>
	</g>
	<g>
		<g>
			<path class="st6" d="M645,734.3c12.2-9.7,23.2-20.7,33.7-32.2c5.2-5.8,10.3-11.7,15.4-17.6c2.4-2.8,9.1-7.9,7.7-12.2
				c-0.1-0.5-0.5-0.9-1-1c-0.2,0-0.4-0.1-0.6-0.1c-1.9-0.4-2.7,2.5-0.8,2.9c-1.2-0.3-6.4,7.3-7.4,8.4c-1.9,2.3-3.9,4.6-5.9,6.8
				c-4.5,5.2-9.1,10.4-13.8,15.4c-9.2,9.8-18.9,19.1-29.4,27.5C641.4,733.4,643.5,735.5,645,734.3L645,734.3z"/>
		</g>
	</g>
	<g>
		<g>
			<path class="st6" d="M412.8,639.2c11.9,11.7,24.4,22.8,38.6,31.7c14.9,9.3,31.2,16.3,47.1,23.6c1.7,0.8,3.3-1.8,1.5-2.6
				c-15.4-7.1-31-13.9-45.5-22.7c-14.6-8.9-27.4-20.2-39.6-32.2C413.5,635.8,411.4,637.9,412.8,639.2L412.8,639.2z"/>
		</g>
	</g>
	<g>
		<g>
			<path class="st6" d="M499.3,693.6c20.8-6.9,37.8-23.1,53.7-37.5c18-16.1,34.9-33.2,50.8-51.3c1.3-1.4-0.8-3.6-2.1-2.1
				c-15.1,17.2-31.1,33.5-48.1,48.9c-16.3,14.8-33.9,32.1-55.2,39.2C496.7,691.3,497.5,694.2,499.3,693.6L499.3,693.6z"/>
		</g>
	</g>
	<g>
		<g>
			<path class="st6" d="M498.3,691.2c1.9,24.3,4.8,48.4,8.7,72.4c0.3,1.9,3.2,1.1,2.9-0.8c-3.8-23.8-6.7-47.6-8.6-71.6
				C501.2,689.3,498.2,689.3,498.3,691.2L498.3,691.2z"/>
		</g>
	</g>
	<g>
		<g>
			<path class="st6" d="M438.9,567.4c6,1.6,12.3,0.1,18.3-0.8c7-1,14-2,20.9-3.2c14.9-2.4,29.7-5.1,44.5-8.1
				c29.2-6,58.2-13.2,86.8-21.5c1.8-0.5,1.1-3.4-0.8-2.9c-27.4,8-55.1,14.9-83,20.8c-13.8,2.9-27.7,5.5-41.6,7.8
				c-7,1.2-13.9,2.3-20.9,3.3c-7.3,1.1-16.1,3.7-23.3,1.8C437.9,564,437.1,566.9,438.9,567.4L438.9,567.4z"/>
		</g>
	</g>
	<path class="st7" d="M585.2,546.4c3.8,7.6,6.5,15.1,8.5,22.4c24,88.9-61,178.6-80.7,198.6c21.2-0.8,48.7-4,79.4-13.6
		c19.7-6.2,36.6-13.6,50.4-20.9c7.6-5.7,15.5-12.3,23.6-19.9c14.9-14,26.7-28,36-40.6c-6.2-10.1-11.7-18-15.5-23.3
		c-7.4-10.3-12.5-16.3-19.4-27.7c-3.3-5.4-5.7-9.9-7.2-12.8c-2.7-13.8-5.5-27.7-8.6-41.9c-4.2-19.8-8.7-39.2-13.2-58.1
		c-5,6.6-13,15.6-24.9,23.8C602.8,539.8,592.7,544,585.2,546.4z"/>
</g>
<g id="fingers">
	<path class="st3" d="M418.3,580.7c-2,0.5-3.6,1.6-6.7,3.8c-2.6,1.8-4.5,3.6-5.8,4.8c-1,1.5-2.6,4.6-3,8.9c-0.4,4.4,0.7,7.8,1.4,9.5
		c-1.6,1.3-3.6,3.4-3.9,6.1c-0.2,1.9,0.5,3.1,1.5,6.1c0.6,1.8,1.3,4.6,1.8,8c0.3,3.6,0.7,7.2,1.1,11c0.9,7.3,2,14.3,3.3,20.8
		c-0.2,1.4-0.4,3.7-0.5,6.4c-0.1,6.6-0.2,15.4,5,22.4c0.8,1,4,5.3,6.2,4.6c2.1-0.7,2.3-5.7,2.6-11.4c0.2-4.8,0-8.8-0.3-11.7
		c0.6-1.6,1.2-3.7,1.5-6c0.7-4.4,0.2-8.2-0.3-10.8c0.8-0.8,2.1-2.3,2.9-4.4c1.5-4.1,0.2-7.8-0.2-8.8c1.2-0.2,3.1-0.7,4-2.2
		c1.5-2.3,0.2-5.4-0.9-7.9c-4.1-9.2-8.6-16.1-11.7-21.5c-1.3-2.3-3.4-6.1-5.5-10.9c2.6-3,5-4,6.6-4.3c3.6-0.7,5.2,1.2,9.2,0.3
		c0.8-0.2,5-1.2,5.7-3.9c0.6-2.6-2.1-5.1-3-5.9C426.4,580.8,422.1,579.8,418.3,580.7z"/>
	<g>
		<g>
			<path class="st6" d="M402.9,589.3c-4.2,9.3,0.1,21.8,3.8,30.6c2,4.8,4.6,9.5,8,13.5c2.5,3,6.6,7.6,10.7,8.4
				c10.2,1.9,2.3-17,0.5-20.6c-3.2-6.4-6.9-12.5-10.4-18.7c-2.7-4.7-4.9-10.8-9.6-14c-1.6-1.1-3.1,1.5-1.5,2.6
				c4,2.8,6.2,8.8,8.5,12.9c2.2,3.9,4.5,7.8,6.7,11.8c2.2,3.9,4.5,7.9,6,12.2c0.8,2.2,2.1,5.7,1.8,8c0.6,2.2-0.4,2.9-3.2,2.1
				c-0.8-0.5-1.5-1.1-2.2-1.7c-6.4-5.1-10.6-12.4-13.4-20c-2.7-7.4-6.4-18-3-25.5C406.2,589.1,403.7,587.6,402.9,589.3L402.9,589.3z
				"/>
		</g>
	</g>
	<g>
		<g>
			<path class="st6" d="M403.7,606.2c-6.8,1.6-4.6,9.7-3.3,14.5c2.1,7.8,5.6,15.4,10.2,22c2.2,3.2,4.6,6.2,7.3,9
				c1.4,1.5,3.7,4.5,6.2,3.5c5-2,2.3-14,1.2-17.5c-0.6-1.8-3.5-1.1-2.9,0.8c0.9,2.8,1.4,5.5,1.4,8.5c0,1.7-0.2,3.3-0.6,5
				c-1.2-0.5-2.3-1.3-3.1-2.3c-3.4-3.1-6.2-7.2-8.6-11c-1.9-3-14.8-27.6-6.9-29.4C406.4,608.7,405.6,605.8,403.7,606.2L403.7,606.2z
				"/>
		</g>
	</g>
	<g>
		<g>
			<path class="st6" d="M402.2,626c-1.3,14.2,1.9,31,11.1,42.4c2.4,3,6.5,5.5,9.1,1.2c3.4-5.5,2-14.2-0.2-19.8
				c-0.7-1.8-3.6-1-2.9,0.8c1,2.4,1.7,4.9,1.9,7.5c0.2,2.1,0.5,6.6-0.8,8.5c-3.7,5-9.1-7.1-10.4-10.1c-4.2-9.6-5.7-20.1-4.8-30.5
				C405.4,624.1,402.4,624.1,402.2,626L402.2,626z"/>
		</g>
	</g>
	<g>
		<g>
			<path class="st6" d="M406.4,659.6c-0.8,6.5-0.5,13,1.1,19.4c1.1,4.5,2.9,11.9,7.2,14.6c11,7,8.3-18.4,8.4-22.5c0-1.9-3-1.9-3,0
				c-0.1,4.5-0.2,9.1-0.3,13.6c0,1.4,0.6,8.6-4.1,5.9c-1.5-0.9-2.5-4.4-3.2-5.9c-3.2-8-4.1-16.5-3.1-25
				C409.6,657.7,406.6,657.8,406.4,659.6L406.4,659.6z"/>
		</g>
	</g>
	<g>
		<g>
			<path class="st6" d="M410.1,589.6c1.8-4.5,5.9-7.7,10.8-7.7c2.6,0,5.7,1,7.5,2.8c3,3-0.5,7.3-4.1,7.1c-5-0.4-10.3-1.1-12.5,4.5
				c-0.7,1.8,2.2,2.6,2.9,0.8c2.3-5.9,13.1,0.1,17.5-4.5c3.1-3.2,1.2-7.4-1.7-10c-7.9-7.2-19.6-3.1-23.4,6.2
				C406.5,590.6,409.4,591.4,410.1,589.6L410.1,589.6z"/>
		</g>
	</g>
</g>
<g id="hand_left">
	<path class="st3" d="M632.2,321.7c-3.5,5.5-6.9,11.9-9.6,19.3c-11.2,30.1-5.3,58.1-1.3,71.7c11.9,18.2,23.9,36.6,35.8,55.3
		c11,17.1,21.8,34.2,32.5,51.2c-10.3,13-20.6,26-30.9,39c-8.7,11-17.3,21.9-25.9,32.9c-7.7-0.8-14.1-0.8-18.6-0.6
		c-20.9,0.7-24.6,5.6-25.5,6.9c-0.4,0.6-2.1,3.2-1.2,5c0.7,1.3,2.3,1.3,5.3,2.6c2.1,0.9,3.8,1.9,4.8,2.7c-10,10-18.1,17.8-25.1,24
		c-1.2,1.1-6.6,5.8-9.7,13.6c-0.5,1.3-2.9,7.2-1.2,8.4c1.1,0.8,3.4-0.7,10.8-5.2c3.9-2.4,7.1-4.3,9-5.4c-4.4,5.2-6.8,10-8.1,13.4
		c-1.1,2.8-4.6,11.5-1.7,14c1.2,1,2.6,0.2,6.3,1.4c2.1,0.7,3.7,1.6,4.8,2.2c3.7-4.1,6.6-7.6,8.4-9.9c3.9-4.9,5.2-7.1,8.3-9.3
		c3.5-2.5,7.1-3.6,9.4-4.1c-2.2,5.6-3.8,10.3-4.9,13.8c-2.5,7.7-3.1,10.6-1.6,12.3c1.2,1.3,3.3,1.5,4.9,1.1c4.1-1,5.4-6.6,7.8-11.8
		c2.8-6.4,6.2-10.3,12.2-17c10.8-12.1,18-10.7,26.9-22.1c4.1-5.2,6.3-10.3,7.5-13.4c4.9-3.8,12.3-9.5,21-16.6
		c20.6-16.8,15.1-13.7,40.7-35.8c11.4-9.8,18.5-15.6,23.1-26.8c2.3-5.5,3.1-10.4,3.5-13.7c-2.7-7.5-6.3-17.2-10.8-28.4
		c-2.9-7.1-9.6-23.5-19.6-44.5c-2.3-4.8-3.4-7.1-20-39.3c0,0-8.7-16.9-26.5-49.1c-7.3-13.2-12.8-22.8-24.3-30.3
		C642.4,325,636.4,322.9,632.2,321.7z"/>
	<g>
		<g>
			<path class="st6" d="M632.2,323.2c14.3,0.8,22.9,14.8,29.9,25.6c8.4,12.8,16.4,25.8,24.1,39c15.5,26.7,29.5,54.2,42,82.5
				c7.2,16.4,13.9,33,20.1,49.8c0.7,1.8,3.6,1,2.9-0.8c-22.6-61.5-52.2-120.4-88.4-175.1c-7.3-10.9-16.2-23.3-30.5-24
				C630.3,320.1,630.3,323.1,632.2,323.2L632.2,323.2z"/>
		</g>
	</g>
	<g>
		<g>
			<path class="st6" d="M620.2,414.8c23.2,34.7,45.9,69.7,68,105.2c1,1.6,3.6,0.1,2.6-1.5c-22.1-35.4-44.8-70.5-68-105.2
				C621.8,411.7,619.2,413.2,620.2,414.8L620.2,414.8z"/>
		</g>
	</g>
	<g>
		<g>
			<path class="st6" d="M702.4,515.3c-6.5-1.8-11.7,2.4-15.8,7c-6.3,7-12.1,14.5-18.1,21.8c-12.5,15-24.9,30-37.4,45
				c-1.2,1.5,0.9,3.6,2.1,2.1c10.8-13,21.5-25.9,32.3-38.9c5.3-6.4,10.6-12.7,15.8-19.1c4.6-5.5,11.7-17.4,20.2-15
				C703.5,518.7,704.3,515.8,702.4,515.3L702.4,515.3z"/>
		</g>
	</g>
	<g>
		<g>
			<path class="st6" d="M748.4,520.8c-0.4,10.8-6.6,19.6-13.7,27.3c-7.1,7.6-14.9,14.6-22.6,21.6c-16.5,15-33.6,29.3-51.3,42.8
				c-1.5,1.2,0,3.8,1.5,2.6c18.9-14.5,37.2-29.7,54.7-45.8c14-12.9,33.6-27.7,34.4-48.5C751.5,518.8,748.5,518.8,748.4,520.8
				L748.4,520.8z"/>
		</g>
	</g>
	<g>
		<g>
			<path class="st6" d="M633.1,589.7c-13.5-1.9-28.9-1.3-41.6,4.3c-3.4,1.5-7.2,4.7-5.5,8.9c1.7,4.4,7.6,3,10.5,5.9
				c1.4,1.4,3.5-0.7,2.1-2.1c-2-2-4.1-1.9-6.5-3c-2.7-0.4-2.9-2.5-0.5-6.5c1.3-0.6,2.6-1.1,3.9-1.5c2-0.7,4.1-1.2,6.1-1.7
				c10.1-2.4,20.5-2.8,30.7-1.4C634.2,592.8,635,589.9,633.1,589.7L633.1,589.7z"/>
		</g>
	</g>
	<g>
		<g>
			<path class="st6" d="M601.1,604.3c-13.4,11.4-30.2,22.6-38.8,38.5c-1.6,2.9-6.4,12.2,0.2,12.8c3.4,0.3,6.8-3.2,9.4-5
				c3.8-2.7,7.6-5.5,11.3-8.3c1.5-1.2-0.6-3.3-2.1-2.1c-3.3,2.5-6.5,5-9.9,7.4c-1.2,0.9-2.5,1.7-3.7,2.6c-0.8,0.5-1.5,1-2.3,1.5
				c-0.9-0.7-1.8-1.4-2.7-2c-0.4-2.1,3.6-7.5,4.8-9.3c1.8-2.7,3.9-5.2,6.2-7.6c9-9.6,19.8-17.8,29.8-26.3
				C604.7,605.1,602.6,603,601.1,604.3L601.1,604.3z"/>
		</g>
	</g>
	<g>
		<g>
			<path class="st6" d="M659.2,613c-3.2,18.5-23.3,24.9-35,37.1c-5.7,6-9.2,13.5-13.5,20.4c-0.7,1.2-3.4,6.3-4.6,6.5
				c-4.3,0.8-2.2-6.2-1.9-7.6c1-5.2,2.9-10.1,5.4-14.8c0.9-1.7-1.7-3.2-2.6-1.5c-2.9,5.4-5,11.2-6,17.3c-0.5,2.9-1.4,7.6,1.4,9.9
				c6,5,13.6-12.9,15.5-16.1c3.1-5.4,6.6-10.5,11.3-14.7c4.8-4.3,10.2-7.7,15.4-11.5c8.1-6.1,15.6-13.7,17.4-24.1
				C662.4,611.9,659.5,611.1,659.2,613L659.2,613z"/>
		</g>
	</g>
	<g>
		<g>
			<path class="st6" d="M593.7,632.3c-3.6-5.6-12.4,8.2-14.1,10.6c-3.4,4.6-6.3,9.6-8.6,14.8c-1.6,3.5-3.4,7.7-1.9,11.5
				c0.9,2.4,3.3,4.6,6,4.1c3.4-0.6,4.6-4.4,5.9-7.1c5-10.3,12.2-19.1,21-26.4c1.5-1.2-0.6-3.3-2.1-2.1c-9.8,8.1-16.9,17.9-22.5,29.2
				c-0.9,1.7-2.5,6.2-5.7,1c-0.8-1.4,0.3-4.7,0.8-6.1c1.2-3.5,3.1-6.9,5-10.2c1.7-2.9,3.6-5.7,5.6-8.4c0.6-0.8,8.1-9.2,8-9.4
				C592.1,635.4,594.7,633.9,593.7,632.3L593.7,632.3z"/>
		</g>
	</g>
	<g>
		<g>
			<path class="st6" d="M577.6,668.2c-4.6,5.2,2.9,9.7,7.6,6.3c3.3-2.3,5.2-7.1,7.6-10.2c3.6-4.7,9.4-12.5,15.9-11.9
				c1.9,0.2,1.9-2.8,0-3c-5.6-0.5-9.8,3.5-13.4,7.4c-2,2.1-3.8,4.2-5.5,6.5c-1,1.3-1.9,2.6-2.8,4c-0.4,0.6-0.8,1.3-1.2,1.9
				c-1.1,2.8-3.1,3.2-6.2,1.2C581,668.8,578.9,666.7,577.6,668.2L577.6,668.2z"/>
		</g>
	</g>
	<g>
		<g>
			<path class="st6" d="M630.2,320.4c-16,28.6-19.7,63-9.9,94.3c0.6,1.8,3.5,1.1,2.9-0.8c-9.5-30.5-6-64,9.6-91.9
				C633.7,320.2,631.1,318.7,630.2,320.4L630.2,320.4z"/>
		</g>
	</g>
	<path class="st10" d="M629,322.8c-2.6,3.6,12,16.7,24.5,30.7c0,0,29.5,32.9,48.4,78.4c10.5,25.3,18.2,43.7,16.4,68.9
		c-2.5,34.6-21.1,59.6-30,70.9c-16.7,21.4-30.8,26.1-50.5,49.8c-18.1,21.8-27.7,43.6-32.8,58.1c8.2-20.7,18.7-30.3,27-35.2
		c5.9-3.6,14.9-7.3,22-17.2c3.7-5.2,5.6-10.3,6.5-13.8c4.3-3.1,11.1-8,19.3-14.1c44.6-33.1,53.6-44.4,59.5-54.4
		c3-5,7.2-13.1,10.5-24.2c-2.6-7.4-6.2-17.1-10.8-28.4c-6.7-16.7-18.2-43.4-34.9-75.1c-12.8-24.2-29.5-52.6-50.8-83.3
		c-1.4-2-4.3-5.7-9.3-8.4C639.1,322.9,630.7,320.5,629,322.8z"/>
</g>
<g id="head">
	<path class="st3" d="M406.2,203.1c-7.3,8-10,15.3-10.6,17.1c-5.1,14.7-1,28,0.8,33.1c3.7,18.7,7.7,34.9,11.2,48
		c3.7,13.5,7.4,25.6,16.8,37.6c6.7,8.5,11.8,11.3,16,12.6c7.8,2.5,14.9,0.6,20.9-0.9c4.5-1.2,11.8-3.6,19.5-9.3
		c2.1,4.9,6.9,14,16.8,20.5c3.2,2.1,6.2,3.5,9,4.5c2.5-1.5,5.8-3.6,9.3-6.7c4.2-3.7,10.1-9,12.8-17.6c0.8-2.5,1.6-6.3,1.4-11
		c-2.4-2.6-4.8-5.7-7.2-9.2c-8.7-13-11.6-26.2-12.7-35.2c3.9-3,11.2-9.4,15.9-20.2c1.6-3.7,7.4-17.3,2.8-32.3c-1.4-4.6-4-10.1-18-24
		c-16.5-16.4-24.8-24.6-32.8-27.7C452.2,172.3,421.5,186.4,406.2,203.1z"/>
	<path class="st2" d="M397.2,257.6c-4.7-2.3-15.3-8.3-18.3-19.3c-1.2-4.4-1.8-11.3,7.7-29.2c13.3-25,24.6-30.8,36-52.3
		c5.7-10.8,8.7-20.3,10.3-26.2c1,7.9,2,15.7,3,23.6c6.6-4.8,15.1-12.1,23.2-22.3c9.9-12.6,15.4-24.8,18.4-33.5
		c1.1,6.5,2.1,13.2,3,20.2c2,15.3,3.2,29.9,3.9,43.8c4-2,10.5-6.1,16.3-13.3c7-8.8,9.4-17.7,10.3-22.3c-1.1,14.9-2.3,29.7-3.4,44.6
		c2.9-2.5,6.6-6.1,9.9-11.2c5.5-8.4,7.1-16.7,7.7-21.4c2.4,12.5,3.6,22.9,4.3,30.5c1,11.9,1.1,21.5,1.3,38.6c0.1,8.7,0,16,0,21
		c5.2-14.7,7.7-17.4,9-17.2c3.2,0.6,2.7,18.1,1.3,30c-1.4,11.8-3,23.9-11.2,36.9c-5.9,9.4-12.9,15.6-17.6,19.1c-2-5-4.4-13-2.9-22.5
		c0.3-2,0.8-3.9,1.3-5.6c1.6-0.2,4-0.7,6.4-2.1c4.7-2.6,6.8-6.7,8.2-9.4c2.1-4.2,5.8-11.5,2.6-18.9c-0.5-1.1-3-6.9-9.2-8.8
		c-5.5-1.6-11.7,0.5-15.9,5.5c-1.3-4.7-3.8-11.4-8.8-18.5c-5.9-8.4-12.6-13.5-16.9-16.3c-3.9-2-17.4-8.1-34.5-4.4
		c-15.2,3.3-24.3,12.4-27.5,15.9c-3.4,2.1-8.1,5.6-12,11.2C393,238,396.4,254.3,397.2,257.6z"/>
	<g>
		<g>
			<path class="st6" d="M393.9,247.4c3,17.6,6.4,35.1,11.7,52.2c4.6,14.8,10.3,31.6,20.4,43.7c21.7,26.2,58.6,0,73-20.9
				c10.4-15.2,14.8-33.8,11.8-52.1c-0.3-1.9-3.2-1.1-2.9,0.8c4.9,30.4-12.5,60.4-39.3,74.6c-15.4,8.1-33,7.2-43.1-8.2
				c-8.2-12.4-13.5-27.1-17.7-41.3c-4.8-16.3-8-32.9-10.9-49.6C396.4,244.7,393.5,245.5,393.9,247.4L393.9,247.4z"/>
		</g>
	</g>
	<g>
		<g>
			<path class="st6" d="M508.8,286.5c1.8,16.5,8.2,31.7,18.8,44.3c1.2,1.5,3.4-0.7,2.1-2.1c-10.1-12-16.3-26.6-18-42.2
				C511.6,284.6,508.5,284.5,508.8,286.5L508.8,286.5z"/>
		</g>
	</g>
	<g>
		<g>
			<path class="st6" d="M478.8,340.8c6.5,9.8,13.5,19.2,23.2,26.1c1.6,1.1,3.1-1.5,1.5-2.6c-9.2-6.6-15.9-15.7-22.1-25
				C480.3,337.7,477.7,339.2,478.8,340.8L478.8,340.8z"/>
		</g>
	</g>
	<g>
		<g>
			<path class="st6" d="M502.4,367.2c7.3,3.2,16-7.7,19.9-12.6c4.9-6.3,12.3-15.7,9.3-24.2c-0.6-1.8-3.5-1-2.9,0.8
				c2.4,6.8-3.5,14.3-7.3,19.6c-2,2.7-4.1,5.3-6.5,7.6c-2,1.9-7.6,7.6-10.9,6.2C502.1,363.8,500.6,366.4,502.4,367.2L502.4,367.2z"
				/>
		</g>
	</g>
	<g>
		<g>
			<path class="st6" d="M510.4,271.4c14-2.1,20-17.6,18.3-30.4c-1.7-12.5-16.8-16.6-25.3-7.8c-1.3,1.4,0.8,3.5,2.1,2.1
				c4-4.1,10-5.5,15-2.2c4.8,3.1,5.7,8.4,5.2,13.7c-0.9,10.3-4.6,20.1-16,21.8C507.7,268.8,508.5,271.7,510.4,271.4L510.4,271.4z"/>
		</g>
	</g>
	<g>
		<g>
			<path class="st6" d="M420.4,244.1c1.5,18.2,4.2,36.3,7.9,54.1c0.3,1.4,2.6,1.4,2.9,0c1.6-7.3,3.2-14.6,4.7-21.9
				c0.4-1.9-2.5-2.7-2.9-0.8c-1.6,7.3-3.2,14.6-4.7,21.9c1,0,1.9,0,2.9,0c-3.7-17.6-6.3-35.4-7.8-53.3
				C423.3,242.2,420.3,242.2,420.4,244.1L420.4,244.1z"/>
		</g>
	</g>
	<g>
		<g>
			<path class="st6" d="M438.9,303.3c11.7-1.9,20.8-15.3,23-26.2c0.4-1.9-2.5-2.7-2.9-0.8c-2,9.9-10.2,22.3-20.9,24.1
				C436.2,300.7,437,303.6,438.9,303.3L438.9,303.3z"/>
		</g>
	</g>
	
		<ellipse transform="matrix(0.9702 -0.2423 0.2423 0.9702 -52.2679 107.607)" class="st6" cx="411.4" cy="266.3" rx="3.3" ry="9.6"/>
	
		<ellipse transform="matrix(0.9702 -0.2423 0.2423 0.9702 -47.1397 116.355)" class="st6" cx="449.5" cy="249.8" rx="3.3" ry="9.6"/>
	<g>
		<g>
			<path class="st6" d="M400.3,244.4c-0.2-2.2,0.1-5.7,2.1-7.1c1.7-1.1,5.2-0.4,6.6,0.9c1.4,1.3,3.5-0.8,2.1-2.1
				c-2.2-2.1-6.8-3.2-9.7-1.9c-3.4,1.5-4.4,7-4.1,10.2C397.5,246.3,400.5,246.4,400.3,244.4L400.3,244.4z"/>
		</g>
	</g>
	<g>
		<g>
			<path class="st6" d="M436.2,222.4c1.2-3.9,5.2-6.3,9.2-5.6c3.6,0.7,6.3,3.4,8,6.5c0.9,1.7,3.5,0.2,2.6-1.5
				c-2.5-4.6-7-8.3-12.5-8.1c-4.8,0.2-8.9,3.4-10.3,7.9C432.7,223.5,435.6,224.2,436.2,222.4L436.2,222.4z"/>
		</g>
	</g>
</g>
</svg>
